<svg id="Layer_1" data-name="Layer 1" xmlns="http://www.w3.org/2000/svg" viewBox="0 0 159.15 57.35"><defs><style>.cls-1{fill:#fdd7bc;}.cls-2{fill:#3f2913;}.cls-3{fill:#503313;}.cls-4{fill:#5f3815;}</style></defs><title>P-fonsiclothes</title><path class="cls-1" d="M97.11,31.82A1.43,1.43,0,0,0,96.34,34c1.27,2.08,4.16,5.82,8,4.46C108.94,36.75,101.56,30.53,97.11,31.82Z"/><path class="cls-1" d="M108.46,38.7s-1.43,2,0,3S110.61,38.6,108.46,38.7Z"/><path class="cls-2" d="M36.34,44.93s-3.82-43.74,15-43.74A45.19,45.19,0,0,1,82,13.67,34,34,0,0,1,108.82,2.39c17.26.71,16.09,42.18,16.09,42.18Z"/><path class="cls-3" d="M80.43,53.66s59.23,7.67,65.75-2.92,22-20,2-19.56S130.61,43.5,107.84,43.41l-56,.1C29,43.6,31.41,31.69,11.44,31.28s-4.48,9,2,19.56C13.48,50.84,11.91,60.47,80.43,53.66Z"/><path class="cls-4" d="M80.47,37.27s-3.54,1-7-3.39,2.93-6,2.93-6c-6.22,0-8.63-9.36-8.63-9.36.33,4.36,12.75,7.26,12.75,7.26s12.43-2.9,12.75-7.26c0,0-2.41,9.36-8.63,9.36,0,0,6.45,1.62,2.94,6S80.47,37.27,80.47,37.27Z"/></svg>