<svg id="Layer_1" data-name="Layer 1" xmlns="http://www.w3.org/2000/svg" viewBox="0 0 90.28 299.58"><defs><style>.cls-1{fill:#fee1c8;}.cls-2{fill:#fdd7bc;}.cls-3{fill:#e0e0e0;}.cls-4{fill:#fee2ca;}.cls-5{fill:#fff;}.cls-6{fill:#f9f9fa;}.cls-7{fill:#ededed;}.cls-8{fill:#ddd;}.cls-9{fill:#f0efef;}.cls-10{fill:#ededee;}.cls-11,.cls-14,.cls-15{fill:none;stroke-miterlimit:10;}.cls-11,.cls-14{stroke:#fdd7bc;}.cls-11{stroke-width:1.06px;}.cls-12{fill:#e2e3e4;}.cls-13{fill:#231f20;}.cls-14{stroke-width:0.89px;}.cls-15{stroke:#231f20;stroke-linecap:round;stroke-width:1.02px;}.cls-16{fill:#cccccb;}</style></defs><title>P-Bodyfons</title><path class="cls-1" d="M61.29,84.08C60.42,97.23,64,102.7,64,102.7H30.39s2.7-4.1,2.47-17.43Z"/><path class="cls-2" d="M32.86,85.27s4,3.94,12.67,3.76a32.52,32.52,0,0,0,15.76-5,42.75,42.75,0,0,0,.24,10.17s-11.44,4.82-13.79,4.88S33.4,92.17,32.86,85.27Z"/><path class="cls-1" d="M78.49,39c0-20.23-14.18-36.63-31.67-36.63S15.15,18.81,15.15,39c0,0-2.32,24.5,3.56,32.39,0,0,9.89,17.87,26.82,18.26,16.17.37,28.26-16.63,29.32-18.17l.07-.09C80.8,63.54,78.49,39,78.49,39Z"/><path class="cls-3" d="M15.4,60.54l3.69-2.47,3.67,6.39,1.83-3.19,2.2-2.4,2.2,4,6.23-2.8,2.2,1.2,4.4,1.4,3.53-2.83a1.59,1.59,0,0,1,2.23.23l3,3.59,2.94-2.39,2.93-1.2,5.68,1.2,2.57-2,5.13,2L75,58.87l3.26,2.4S79,70.27,66.48,81,44.1,92.18,32.6,86.24,14.93,67.46,15.4,60.54Z"/><path class="cls-4" d="M71.85,172.64H19.77s.3,53.56,0,65.31l.44,42.71s6.41,6.83,14.09,0V237.52s1.19-34,0-45.62h22s-.47,30.43,0,46.9v41.43s7.41,7,14.46,0Z"/><path class="cls-5" d="M68.45,133l.32,39.65H23.53V133H9.93c-1.42-31.55,20.13-29.66,20.13-29.66H63.13s18.78-.94,18.94,16.78l0,12.88Z"/><path class="cls-6" d="M16.08,133.21l-6.15-.08s-.18-9.54,1-13.46,2.21-14.79,17.62-16.32c0,0,31-2,42.75,1.29v10.42c0,5.64-16.8,11.65-23.17,11.65s-30.26-10.48-30.26-10.48l-1.83,17"/><rect class="cls-4" x="68.07" y="132.36" width="13.82" height="35.04"/><rect class="cls-4" x="9.93" y="133.01" width="13.82" height="35.04"/><path class="cls-7" d="M15.33,172.07h58.4V179s-18.08.86-18.44,13.5H35s-1-12.78-19.65-13.06Z"/><rect class="cls-8" x="15.33" y="172.07" width="58.4" height="1.77"/><path class="cls-5" d="M43.88,192.47c0-15.59-28.55-15.91-28.55-15.91v-1.88s17.33.9,24.35,6.61c0,0,6.37,5.08,6.81,11.18"/><path class="cls-5" d="M44,192.47c.45-6.1,6.82-11.18,6.82-11.18,7-5.71,24.34-6.61,24.34-6.61v1.88s-28.54.32-28.54,15.91Z"/><rect class="cls-5" x="43.75" y="173.84" width="2.73" height="18.63"/><path class="cls-5" d="M54.31,173.84s-1.28,7.36,5.6,10l1.82-1.23s-4.17-1.33-5.2-3.46c0,0-1.49-3.07-.05-5.28Z"/><path class="cls-5" d="M34.43,173.38s1.29,7.36-5.59,10L27,182.12s4.17-1.34,5.21-3.47c0,0,1.48-3.06,0-5.27Z"/><path class="cls-9" d="M30.39,103.35s-.81,17.6,15.57,17,18-17,18-17l1.41.07S67.65,122.57,46,122.57c-18.75,0-17.37-19.22-17.37-19.22Z"/><path class="cls-10" d="M70.66,282.26a36,36,0,0,1,.1,9.26,19.15,19.15,0,0,1-14.57,0c-.84-1.36,0-9.63,0-9.63a12.07,12.07,0,0,0,7.31,2A18.9,18.9,0,0,0,70.66,282.26Z"/><path class="cls-1" d="M64,102.05s2.8,18.64-17.16,19-16.43-19-16.43-19Z"/><circle class="cls-1" cx="80.2" cy="45.54" r="4.59"/><circle class="cls-1" cx="13.32" cy="45.54" r="4.59"/><path class="cls-11" d="M14,42.93a2.64,2.64,0,0,0-3.76,1.26C8.92,46.82,12,48.62,12,48.62"/><path class="cls-10" d="M34.24,281.79a35,35,0,0,1,.1,8.93,18.49,18.49,0,0,1-14.05,0c-.81-1.31,0-9.28,0-9.28a11.59,11.59,0,0,0,7.05,1.89A18.28,18.28,0,0,0,34.24,281.79Z"/><path class="cls-10" d="M34.41,291s.78,7.54-6.76,7.54c-8.28,0-7.55-7.54-7.55-7.54Z"/><path class="cls-9" d="M9.93,133.13l-.07-.28H23.75v.28a3.54,3.54,0,0,1-2.32.44c-1.74-.06-4.57-.36-5.35-.36s-3.18.26-4.39.26A3.63,3.63,0,0,1,9.93,133.13Z"/><path class="cls-9" d="M68.11,132.48,68,132.2H81.92v.28a3.52,3.52,0,0,1-2.31.44c-1.74-.06-4.57-.37-5.35-.36s-3.19.26-4.39.26A3.63,3.63,0,0,1,68.11,132.48Z"/><path class="cls-6" d="M25.75,171.26s4.87-.76,6.47-.44a59.31,59.31,0,0,0,9.94-.07c2.45-.25,15.48,1,18.05,1a55.88,55.88,0,0,0,6.28-.53v1.4H25.65Z"/><polygon class="cls-6" points="67.62 142.2 61.95 147.69 54.49 151.6 54.41 156.21 48.58 159.6 59.12 155.61 62.08 151.57 67.87 146.4 67.62 142.2"/><polygon class="cls-6" points="48.21 154.6 53.17 151.76 53.16 148.49 58.27 145.16 51.95 146.74 45.64 148.34 43.65 151.83 48.21 154.6"/><polygon class="cls-6" points="19.68 129.53 19.68 121.86 24.42 121.86 27.03 125.7 35.69 127.25 37.48 131.17 19.68 129.53"/><path class="cls-12" d="M34.3,280v2.14a11.21,11.21,0,0,1-7.38,3,9.06,9.06,0,0,1-6.71-2.67v-1.79a11.44,11.44,0,0,0,7.06,2.74C31.06,283.35,34.3,280,34.3,280Z"/><path class="cls-12" d="M70.76,280.12l-.1,2.14A11.66,11.66,0,0,1,63,284.88a9.46,9.46,0,0,1-6.76-3l.08-1.79a12,12,0,0,0,7.11,3.08C67.28,283.31,70.76,280.12,70.76,280.12Z"/><path class="cls-10" d="M70.76,291.52s.8,7.67-6.88,7.67c-8.43,0-7.69-7.67-7.69-7.67Z"/><path class="cls-6" d="M83.85,121.76c1.6.32-86.26-.35-83.8-.59s15.49,1,18.05,1"/><circle class="cls-13" cx="63.77" cy="45.54" r="3.12"/><path class="cls-14" d="M12.85,46.07a1.68,1.68,0,0,0,2.25.85"/><path class="cls-11" d="M11.29,45.1s2.27,2.38,4.33-.76"/><path class="cls-11" d="M79.61,42.87a2.65,2.65,0,0,1,3.77,1.26c1.31,2.63-1.76,4.44-1.76,4.44"/><path class="cls-14" d="M80.76,46a1.68,1.68,0,0,1-2.25.86"/><path class="cls-11" d="M82.33,45.05s-2.27,2.38-4.33-.77"/><ellipse class="cls-2" cx="47.29" cy="56.17" rx="4.21" ry="1.9"/><path class="cls-3" d="M58.85,39.85A3.4,3.4,0,0,1,56,39.16c-.84-.72-1.13-1.84,1.75-3.24C63,33.37,70.83,37,70.64,38.76S66.58,38.38,58.85,39.85Z"/><path class="cls-3" d="M33.89,39.85a3.4,3.4,0,0,0,2.84-.69c.84-.72,1.13-1.84-1.75-3.24C29.75,33.37,21.91,37,22.1,38.76S26.16,38.38,33.89,39.85Z"/><path class="cls-15" d="M58.65,43.67s1.4-1.3,5.12-1.25a11.39,11.39,0,0,1,5.59,1.25"/><circle class="cls-13" cx="29.47" cy="45.1" r="3.12"/><path class="cls-15" d="M35.06,43.23A11.3,11.3,0,0,0,29.47,42c-3.72,0-5.12,1.25-5.12,1.25"/><path class="cls-2" d="M59.69,13.66a1,1,0,0,0-.54,1.49c.89,1.46,2.9,4.07,5.57,3.11C68,17.11,62.8,12.76,59.69,13.66Z"/><path class="cls-2" d="M67.62,18.47s-1,1.37,0,2.07S69.12,18.4,67.62,18.47Z"/><path class="cls-5" d="M40.63,69.4l13.17.06c2.17,0,3.78,1.81,3.18,3.62-.88,2.63-3.35,5.72-10.12,5.61s-8.94-3.13-9.62-5.7C36.75,71.14,38.45,69.39,40.63,69.4Z"/><path class="cls-16" d="M46.35,85.28c.45,0,.86.46,1.11.79s.46,0,.31-.19c-.33-.44-.82-1-1.42-1-.24,0-.24.38,0,.37Z"/><path class="cls-16" d="M46.5,86.19c.24-.3.48-.6.73-.89a2.78,2.78,0,0,1,.77-.76c.21-.1,0-.41-.18-.31a2.39,2.39,0,0,0-.72.66c-.29.34-.58.69-.86,1-.15.18.11.44.26.26Z"/><polygon class="cls-2" points="69.87 132.81 69.87 167.4 68.07 167.4 68.11 132.48 69.87 132.81"/><circle class="cls-4" cx="74.63" cy="173.22" r="9.14"/><polygon class="cls-2" points="23.75 133.41 23.75 167.99 21.95 167.99 21.98 133.07 23.75 133.41"/><circle class="cls-4" cx="16.61" cy="172.56" r="9.14"/></svg>