<svg id="Layer_1" data-name="Layer 1" xmlns="http://www.w3.org/2000/svg" viewBox="0 0 159.62 150.39"><defs><style>.cls-1{fill:#fee739;}.cls-2{fill:#f36e2f;}.cls-3{fill:#ffde9c;}.cls-4{fill:#6aaedf;}.cls-5{fill:#e8e8e6;}</style></defs><title>P-fonsiclothes</title><path class="cls-1" d="M43.76,1.88S6.93,43.68,12,88.64,29.8,141,29.8,141H62.23s8-23.06,7.86-57.6l.72-21.88H89.09L88.85,83.4C90.57,123.85,97.9,141,97.9,141h33.19s12.77-7.4,17.82-52.36S117.13,1.88,117.13,1.88H43.76"/><path class="cls-1" d="M89.23,49.15S79.08,67.42,85,79.62s.35,36.6-.35,37.74-1.39,27.07,19.52,23.26"/><path class="cls-1" d="M70.63,49.15s10.15,18.27,4.23,30.47-.35,36.6.35,37.74,1.39,27.07-19.52,23.26"/><polygon class="cls-2" points="38.87 139.93 38.87 23.62 45.11 23.62 45.11 142.14 38.87 139.93"/><polygon class="cls-3" points="44.32 140.09 44.32 22.98 50.56 22.98 50.56 142.31 44.32 140.09"/><polygon class="cls-4" points="50.09 139.93 50.09 23.62 56.34 23.62 56.34 142.14 50.09 139.93"/><polygon class="cls-2" points="119.14 140 119.14 23.06 112.89 23.06 112.89 142.22 119.14 140"/><polygon class="cls-3" points="113.68 140.17 113.68 22.98 107.44 22.98 107.44 142.4 113.68 140.17"/><polygon class="cls-4" points="107.91 140 107.91 23.06 101.67 23.06 101.67 142.22 107.91 140"/><path class="cls-5" d="M29.8,139.93s-13,1.87-8.52,5.25,8.23-5.28,11.4-1.27.63,6.76,6.76,4.65-1.48-4.44,6.12-2.12,9.5,2.54,10.56.22,3.8-3,7.39-2,6.12,2.47,6.33-1.33,1.48-7.18-4.22-4.65c0,0-.21,2.54-5.91,1.27s-13.75-1-14.48,0-3.86,0-9.65,0Z"/><path class="cls-5" d="M98.68,139.93s-13,1.87-8.52,5.25,8.23-5.28,11.4-1.27.63,6.76,6.76,4.65-1.48-4.44,6.12-2.12,9.5,2.54,10.56.22,3.8-3,7.39-2,6.12,2.47,6.33-1.33,1.48-7.18-4.22-4.65c0,0-.21,2.54-5.91,1.27s-13.75-1-14.48,0-3.86,0-9.65,0Z"/><circle class="cls-2" cx="82.25" cy="26.51" r="2.01"/></svg>