<svg id="Layer_1" data-name="Layer 1" xmlns="http://www.w3.org/2000/svg" viewBox="0 0 159.15 223.93"><defs><style>.cls-1{fill:#8e725f;}.cls-2{fill:#936f57;}.cls-3{fill:#806350;}.cls-4{fill:#eec358;}.cls-5{fill:#cb9a4d;}.cls-6{fill:#a07e67;}</style></defs><title>P-fonsiclothes</title><path class="cls-1" d="M22.83,3.41H142.76s-10.82,110.73,11,218.23H90.57c-1.33,7.21,12.85-121.21,3.87-167.13H73.29s-11.83,42.27.24,167.13H12.15S32.63,59.31,22.83,3.41Z"/><polygon class="cls-2" points="41.9 15.59 124.03 15.59 125.17 7.36 41.44 7.36 41.9 15.59"/><path class="cls-3" d="M24.61,80.67s4.87-4.42,9.87-31.12a119.72,119.72,0,0,0,8.17-17A128.08,128.08,0,0,0,48,15.59H24.61Z"/><path class="cls-3" d="M119,15.59s5.92,25,13.72,26.52,7.68,6,7.68,6l.93-27.68Z"/><polyline class="cls-3" points="140.38 48.13 141.3 20.45 118.97 15.59"/><path class="cls-4" d="M75.77,6.81s-1.62,11.08,7.53,11,8-11,8-11Z"/><path class="cls-5" d="M83.49,14.24a2.16,2.16,0,0,1-2.1-1c-1-1.29.88-1.77.88-1.77-1.85,0-2.56-2.78-2.56-2.78.09,1.3,3.78,2.16,3.78,2.16s3.68-.86,3.78-2.16c0,0-.72,2.78-2.56,2.78,0,0,1.91.48.87,1.77A2.15,2.15,0,0,1,83.49,14.24Z"/><rect class="cls-6" x="48.04" y="7.36" width="2.5" height="8.23"/><rect class="cls-6" x="63.53" y="7.36" width="2.5" height="8.23"/><rect class="cls-6" x="99.27" y="7.36" width="2.5" height="8.23"/><rect class="cls-6" x="113.52" y="7.36" width="2.5" height="8.23"/><path class="cls-3" d="M27.44,126.31s5.21,10.8,14.08,9.76c0,0-6.25-2.87-7.82-6.78S27.44,126.31,27.44,126.31Z"/><path class="cls-3" d="M57.85,126.31s-5.21,10.8-14.08,9.76c0,0,6.25-2.87,7.82-6.78S57.85,126.31,57.85,126.31Z"/><path class="cls-3" d="M105.71,127s5.22,10.8,14.09,9.75c0,0-6.26-2.87-7.83-6.78S105.71,127,105.71,127Z"/><path class="cls-3" d="M136.13,127s-5.22,10.8-14.09,9.75c0,0,6.26-2.87,7.82-6.78S136.13,127,136.13,127Z"/><path class="cls-3" d="M99.27,221.64s4.32-22.84,16.75-33.78c7.18-6.33,1.86-16.07,9.15-23.86s16.24-21.43,16.24-21.43l12.33,79.07Z"/><path class="cls-3" d="M33.39,221.64S56,212.21,55,197.6s.19-38,5.7-40.42,7.82-9.74,7.82-9.74l5,74.2Z"/></svg>