<svg id="Layer_1" data-name="Layer 1" xmlns="http://www.w3.org/2000/svg" viewBox="0 0 159.62 100.01"><defs><style>.cls-1{fill:#ededee;}.cls-2{fill:#f0efef;}.cls-3{fill:#c1bcbc;}.cls-4{fill:#b3503d;}.cls-5{fill:#ec6d4f;}.cls-6{fill:#d1a482;}.cls-7,.cls-8{fill:none;stroke-miterlimit:10;}.cls-7{stroke:#fee467;stroke-width:2.32px;}.cls-8{stroke:#fee2ca;stroke-width:0.76px;}</style></defs><title>P-fonsiclothes</title><path class="cls-1" d="M53.52,28.41s1.81,17.45-15.67,17.45c-19.18,0-17.49-17.45-17.49-17.45Z"/><path class="cls-1" d="M137.73,29.71s1.84,17.77-15.95,17.77C102.25,47.47,104,29.71,104,29.71Z"/><path class="cls-2" d="M3.83,80.17V87.3S14.72,99.47,39.19,97.78s35.69-9.44,35.69-9.44v-6.9"/><path class="cls-3" d="M3.83,74.54v5.63S10,91.82,38.88,91.62c0,0,22.72.82,36-10.18l-.33-6.9"/><path class="cls-4" d="M3.83,74.54s3.83,13.8,33.54,13.8,37.18-13.8,37.18-13.8"/><path class="cls-5" d="M11,57.66l9.37-29.25s14.94,10.87,33.16,0L66.76,55.75Z"/><path class="cls-4" d="M20.36,28.41v-14l33.55.53-.39,13.52s-7,7-15.67,7.34C27.39,36.14,20.36,28.41,20.36,28.41Z"/><path class="cls-6" d="M30.18,56.71s9.11,5.66,15.75-.2c0,0-.17-37.34,2.56-46.15,1.62-5.24-21-4.22-19.73-.49C31.05,16.48,30.18,56.71,30.18,56.71Z"/><path class="cls-4" d="M3.83,74.54S-.74,47.19,37.37,47.23c43.57,0,37.18,27.31,37.18,27.31Z"/><path class="cls-7" d="M38.19,30.65S40.82,2.18,56,7.32s-9.4,22.39-14.75,23.47"/><path class="cls-7" d="M38.19,30.65S34.85,1.66,19.71,6.8,29.16,29.5,34.5,30.58c0,0,14.86,0,13.64,1.87s-20.17,4.95-19.3,6,20.05,7,20.05,7"/><circle class="cls-8" cx="28.84" cy="38.41" r="1.34"/><circle class="cls-8" cx="47.55" cy="32.45" r="1.34"/><circle class="cls-8" cx="47.76" cy="44.99" r="1.34"/><path class="cls-7" d="M41.22,30.79s-12.38.32-12.38,1.66,20,4.3,18.71,5.7-20,7.05-20,7.05"/><circle class="cls-8" cx="28.56" cy="44.99" r="1.34"/><circle class="cls-8" cx="28.84" cy="32.45" r="1.34"/><circle class="cls-8" cx="47.55" cy="38.15" r="1.34"/><path class="cls-2" d="M86.91,79.77V86.9s10.9,12.16,35.36,10.47S158,87.94,158,87.94V81"/><path class="cls-3" d="M86.91,74.13v5.64S93.07,91.41,122,91.22c0,0,22.72.81,36-10.19l-.32-6.9"/><path class="cls-5" d="M94.08,57.25,103.45,28s14.94,10.87,33.16,0l13.24,27.34Z"/><path class="cls-4" d="M103.45,28V14l33.55.53L136.61,28s-7,7-15.67,7.34C110.47,35.73,103.45,28,103.45,28Z"/><path class="cls-6" d="M113.27,56.3S122.38,62,129,56.11c0,0-.18-37.35,2.56-46.16,1.62-5.23-21-4.22-19.73-.49C114.14,16.07,113.27,56.3,113.27,56.3Z"/><path class="cls-4" d="M86.91,74.13s-4.56-27.35,33.55-27.31c43.57,0,37.18,27.31,37.18,27.31Z"/><path class="cls-7" d="M121.28,30.25s2.63-28.47,17.77-23.33-9.4,22.38-14.75,23.46"/><path class="cls-7" d="M121.28,30.25s-3.34-29-18.48-23.86,9.44,22.7,14.79,23.79c0,0,14.86,0,13.63,1.87S111.06,37,111.93,38s20,7,20,7"/><circle class="cls-8" cx="111.93" cy="38" r="1.34"/><circle class="cls-8" cx="130.64" cy="32.05" r="1.34"/><circle class="cls-8" cx="130.85" cy="44.58" r="1.34"/><path class="cls-7" d="M124.3,30.38s-12.37.32-12.37,1.67,20,4.3,18.71,5.69-20,7-20,7"/><circle class="cls-8" cx="111.64" cy="44.58" r="1.34"/><circle class="cls-8" cx="111.93" cy="32.05" r="1.34"/><circle class="cls-8" cx="130.64" cy="37.74" r="1.34"/><path class="cls-4" d="M87,74.13s3.84,13.81,33.54,13.81,37.18-13.81,37.18-13.81"/></svg>