<svg id="Layer_1" data-name="Layer 1" xmlns="http://www.w3.org/2000/svg" viewBox="0 0 97.52 66.59"><defs><style>.cls-1{fill:#f48372;}.cls-2{fill:#fee768;}.cls-3{fill:#d6f0fc;}.cls-4{fill:#b960a6;}</style></defs><title>arrow</title><path class="cls-1" d="M4.14,36.22,18.8,59.47A5.73,5.73,0,0,0,27.08,61c7.12-5.32,21.1-14.07,35.1-13.29V60.26a2.35,2.35,0,0,0,4,1.65L92.09,35.62a6.89,6.89,0,0,0-.3-10L67.59,3.87a2.58,2.58,0,0,0-4.3,1.92V18.35s-37.31-3-54.4,3.48A9.8,9.8,0,0,0,4.14,36.22Z"/><path class="cls-2" d="M79,14.12l9.23,8.3c6.11,5.51,6.64,7.21,5.52,10.49S85,42.78,85,42.78s3.35-3.4-12.87-1.55-14-6.71-26.33-5.65-5.17,4.24-14.37,9.9S8,42.27,8,42.27s.21,1.62-3.81-6.05.19-10.79.19-10.79,1.45,4.32,4.82,6.32c0,0,17.15-11.84,24.62-11.38s19.74,5.29,28.61,3.27S79,14.12,79,14.12"/><path class="cls-3" d="M4.33,25.43S12.62,49.9,25.66,33.3c16-20.35,12.44-3.75,27.59,0S79,14.12,79,14.12L67.59,3.87s-3.85-2.35-4.3,1.92-.94,12.62-.94,12.62S14.27,12,4.33,25.43Z"/><path class="cls-4" d="M14.18,52.15s14.68,3,21.45-4.78c10.21-11.79,16.3.24,20-2.2,3-2,12.75-2.81,16.14-1.7,5.89,1.93,6.38,2.25,4.2,7.41-2.85,6.72-9.78,11-9.78,11s-3.72,3.66-4.77-.56c-.82-3.33.4-9.66.64-11.75a1.06,1.06,0,0,0-.89-1.17C58.44,48,49.44,48.22,27.08,61c0,0-3.67,5.81-8.28-1.52Z"/></svg>