<svg id="Layer_1" data-name="Layer 1" xmlns="http://www.w3.org/2000/svg" viewBox="0 0 97.52 66.59"><defs><style>.cls-1{fill:#f48372;}.cls-2{fill:#fee768;}.cls-3{fill:#d6f0fc;}.cls-4{fill:#b960a6;}</style></defs><title>arrowrightleft</title><path class="cls-1" d="M93.23,35.94,78.58,59.19a5.73,5.73,0,0,1-8.29,1.52c-7.12-5.32-21.1-14.07-35.1-13.29V60a2.35,2.35,0,0,1-4,1.65L5.28,35.34a6.9,6.9,0,0,1,.3-10L29.78,3.59a2.58,2.58,0,0,1,4.3,1.92V18.07s37.31-3,54.4,3.48A9.8,9.8,0,0,1,93.23,35.94Z"/><path class="cls-2" d="M18.4,13.84S15.23,15.67,8.65,22c-6.42,6.2-7.43,6.06-5.52,10.61,2.57,6.16,9.2,9.87,9.2,9.87S9,39.1,25.2,41s14-6.71,26.33-5.65,5.17,4.24,14.37,9.9S89.42,42,89.42,42s-.6,1.4,3.81-6.05C97.88,28.08,93,25.15,93,25.15s-1.45,4.32-4.81,6.32c0,0-17.16-11.84-24.62-11.38S43.86,25.38,35,23.36s-16.6-9.52-16.6-9.52"/><path class="cls-3" d="M93,25.15S84.75,49.62,71.71,33c-16-20.35-12.44-3.75-27.58,0S18.4,13.84,18.4,13.84l10.93-10a4.4,4.4,0,0,1,1.94-1.06c1.15-.27,2.65-.09,2.92,2.47.44,4.27.81,12.38.81,12.38S83.19,9.92,93,25.15Z"/><path class="cls-4" d="M83.19,51.87s-14.67,3-21.45-4.78c-10.12-11.68-16.19,0-19.9-2.13-4.07-2.35-10.72-3.58-15.18-2.12-6.9,2.26-7.58,2.3-5.27,7.76,2.85,6.72,9.78,11,9.78,11s3.72,3.66,4.77-.56c.82-3.33-.39-9.66-.63-11.75a1.05,1.05,0,0,1,.88-1.17c2.58-.41,10.7-.24,30.28,10.42a37.61,37.61,0,0,1,5,3.46c1.46,1.14,4,1.93,7.06-2.84Z"/></svg>