<svg id="Layer_1" data-name="Layer 1" xmlns="http://www.w3.org/2000/svg" viewBox="0 0 97.52 66.59"><defs><style>.cls-1{fill:#f48372;}.cls-2{fill:#fee768;}.cls-3{fill:#d6f0fc;}.cls-4{fill:#b960a6;}</style></defs><title>arrowrightleft</title><path class="cls-1" d="M4.14,36.22,18.8,59.47A5.73,5.73,0,0,0,27.08,61c7.12-5.32,21.1-14.07,35.1-13.29V60.26a2.35,2.35,0,0,0,4,1.65L92.09,35.62a6.89,6.89,0,0,0-.3-10L67.59,3.87a2.58,2.58,0,0,0-4.3,1.92V18.35s-37.31-3-54.4,3.48A9.8,9.8,0,0,0,4.14,36.22Z"/><path class="cls-2" d="M79,14.12S82.14,16,88.72,22.3c6.42,6.2,7.43,6.06,5.53,10.61C91.67,39.07,85,42.78,85,42.78s3.35-3.4-12.87-1.55-14-6.71-26.33-5.65-5.17,4.24-14.37,9.9S8,42.27,8,42.27s.6,1.4-3.81-6.05c-4.65-7.86.19-10.79.19-10.79s1.45,4.32,4.82,6.32c0,0,17.15-11.84,24.62-11.38s19.74,5.29,28.61,3.27S79,14.12,79,14.12"/><path class="cls-3" d="M4.33,25.43S12.62,49.9,25.66,33.3c16-20.35,12.44-3.75,27.59,0S79,14.12,79,14.12l-10.93-10a4.49,4.49,0,0,0-2-1.06C65,2.82,63.45,3,63.19,5.56c-.45,4.27-.82,12.38-.82,12.38S14.18,10.2,4.33,25.43Z"/><path class="cls-4" d="M14.18,52.15s14.68,3,21.45-4.78c10.12-11.68,16.19,0,19.91-2.13,4.06-2.35,10.72-3.58,15.17-2.12,6.9,2.25,7.58,2.3,5.27,7.76-2.85,6.72-9.78,11-9.78,11s-3.72,3.66-4.77-.56c-.82-3.33.4-9.66.64-11.75a1.06,1.06,0,0,0-.89-1.17C58.6,48,50.48,48.19,30.9,58.85a37.61,37.61,0,0,0-5,3.46c-1.45,1.14-4.05,1.92-7-2.84Z"/></svg>