<svg id="Layer_1" data-name="Layer 1" xmlns="http://www.w3.org/2000/svg" viewBox="0 0 159.15 121.81"><defs><style>.cls-1{fill:#f0efef;}.cls-2{fill:#503313;}.cls-3{fill:#ece4d6;}.cls-4{fill:#b2a080;}.cls-5{fill:#331e0f;stroke-width:0.31px;}.cls-5,.cls-6,.cls-7{stroke:#cec3a7;stroke-miterlimit:10;}.cls-6,.cls-7{fill:none;stroke-width:0.31px;}.cls-7{stroke-dasharray:0.93 0.93;}.cls-8{fill:#bfb39c;}.cls-9{fill:#5b3d1e;}.cls-10{fill:#482c16;}.cls-11{fill:#502a13;}.cls-12{fill:#4f2b16;}.cls-13{fill:#402811;}</style></defs><title>P-fonsiclothes</title><path class="cls-1" d="M22.23,61.4,22.12,61H44.27v.45s-.91.8-3.69.7-7.29-.58-8.54-.57-5.08.41-7,.41A5.85,5.85,0,0,1,22.23,61.4Z"/><path class="cls-1" d="M115.05,60.36l-.11-.45h22.15v.45s-.91.8-3.69.7-7.29-.58-8.54-.57-5.08.41-7,.41A5.8,5.8,0,0,1,115.05,60.36Z"/><path class="cls-2" d="M136.85,36.54C136.6,8.26,106.63,9.77,106.63,9.77H94.54l-15.29,16L64.7,9.77H53.88s-34.39-3-32.12,47.32h21.7v63.26h72.17l-.51-63.26h21.7Z"/><polygon class="cls-3" points="127.2 8.71 109.3 2.18 104.95 1.04 79.25 15.46 57.42 0 51.99 1.14 30.92 9.37 61.65 18.89 61.65 120.35 98.29 120.35 98.03 18.8 127.2 8.71"/><polyline class="cls-2" points="21.76 51.89 22 97.49 43.45 99.3 43.45 56.05"/><polyline class="cls-2" points="114.15 56.05 114.91 99.3 136.54 97.32 136.89 52.93"/><ellipse class="cls-4" cx="79.25" cy="21.8" rx="1.18" ry="1.29"/><line class="cls-5" x1="75.61" y1="12.98" x2="75.61" y2="119.92"/><line class="cls-5" x1="83.07" y1="12.98" x2="83.07" y2="119.92"/><ellipse class="cls-4" cx="79.25" cy="32.35" rx="1.18" ry="1.29"/><ellipse class="cls-4" cx="79.25" cy="42.89" rx="1.18" ry="1.29"/><ellipse class="cls-4" cx="79.25" cy="52.3" rx="1.18" ry="1.29"/><line class="cls-6" x1="81.1" y1="14.46" x2="81.1" y2="14.92"/><line class="cls-7" x1="81.1" y1="15.85" x2="81.1" y2="119"/><line class="cls-6" x1="81.1" y1="119.46" x2="81.1" y2="119.92"/><line class="cls-6" x1="77.55" y1="14.46" x2="77.55" y2="14.92"/><line class="cls-7" x1="77.55" y1="15.85" x2="77.55" y2="119"/><line class="cls-6" x1="77.55" y1="119.46" x2="77.55" y2="119.92"/><ellipse class="cls-4" cx="79.19" cy="61.39" rx="1.18" ry="1.29"/><ellipse class="cls-4" cx="79.19" cy="71.93" rx="1.18" ry="1.29"/><ellipse class="cls-4" cx="79.19" cy="82.48" rx="1.18" ry="1.29"/><ellipse class="cls-4" cx="79.19" cy="91.89" rx="1.18" ry="1.29"/><ellipse class="cls-4" cx="79.25" cy="101" rx="1.18" ry="1.29"/><ellipse class="cls-4" cx="79.25" cy="111.55" rx="1.18" ry="1.29"/><polygon class="cls-8" points="85.02 12.22 105.23 2.54 127.2 8.71 109.3 2.18 104.95 1.04 85.02 12.22"/><polygon class="cls-8" points="30.92 9.37 56.13 0.84 74.67 12.22 57.42 0 51.99 1.14 30.92 9.37"/><polygon class="cls-9" points="61.65 18.89 37.65 10.8 32.52 12.35 41.22 14.46 54.19 23.09 61.65 18.89"/><polygon class="cls-9" points="103.37 17.32 131.89 11.91 124.25 9.73 103.37 17.32"/><polyline class="cls-9" points="120.27 14.11 106.72 20.52 98.27 18.8 118.39 12.98"/><polygon class="cls-8" points="98.27 18.8 111.68 12.22 127.2 8.71 98.27 18.8"/><polygon class="cls-8" points="30.92 9.37 61.65 18.89 42.4 11.81 30.92 9.37"/><polygon class="cls-10" points="22 97.49 22.12 91.89 43.83 91.89 43.45 99.3 22 97.49"/><polygon class="cls-11" points="115.28 96.36 115.65 91.25 136.59 90 136.57 94.77 115.28 96.36"/><polygon class="cls-10" points="114.91 99.3 115.41 93.17 136.59 91.89 136.54 97.32 114.91 99.3"/><polygon class="cls-12" points="22.12 91.89 22 90.18 43.83 90.6 43.83 91.89 22.12 91.89"/><polygon class="cls-10" points="98.27 18.8 106.89 22.22 120.27 14.74 124.37 13.86 123.64 13.47 119.53 14.46 106.72 20.52 98.27 18.8"/><polygon class="cls-10" points="37.65 14.11 40.96 15.41 53.22 23.96 61.65 20.52 61.65 18.89 52.89 22.22 41.22 14.46 37.65 14.11"/><polygon class="cls-10" points="21.76 57.09 28.73 52.93 26.89 58.77 25.04 61.94 26.89 67.19 21.76 67.19 21.76 57.09"/><polygon class="cls-10" points="136.82 57.09 131.24 53.59 131.89 58.09 133.4 61.06 131.89 65.04 134.03 66.45 136.59 62.67 136.82 57.09"/><polygon class="cls-13" points="115.65 91.25 113.39 60.18 116.19 51.02 114.76 62.11 115.65 91.25"/><polygon class="cls-13" points="43.83 90.6 43.99 62.11 40.27 55.5 42.61 62.15 43.83 90.6"/></svg>