<svg id="Layer_1" data-name="Layer 1" xmlns="http://www.w3.org/2000/svg" viewBox="0 0 159.62 132.54"><defs><style>.cls-1{fill:#604335;}.cls-2{fill:#482915;}.cls-3{fill:#ededee;}.cls-4{fill:#56321a;}.cls-5{fill:#5e3b23;}</style></defs><title>P-fonsiclothes</title><path class="cls-1" d="M14.37,17.23S12.72,32,34.74,31.34,59.67,17.23,59.67,17.23Z"/><path class="cls-2" d="M14.37,17.23s-.54-3.11,6.27-3.09,36.43-2.62,39,3.09"/><path class="cls-1" d="M14.37,17.23a8.13,8.13,0,0,1,6.23-2.12c4.13.19,30.3-.28,34.07.28s5,1.84,5,1.84"/><path class="cls-1" d="M108.34,18.91S106.69,33.66,128.71,33s24.93-14.11,24.93-14.11Z"/><path class="cls-2" d="M108.34,18.91s-.54-3.12,6.27-3.1,36.43-2.61,39,3.1"/><path class="cls-1" d="M108.34,18.91a8.12,8.12,0,0,1,6.23-2.13c4.13.19,30.3-.27,34.07.28s5,1.85,5,1.85"/><path class="cls-3" d="M149.57,26.78A94.44,94.44,0,0,1,149.83,51c-19.93,8.57-38.18,0-38.18,0-2.2-3.56,0-25.23,0-25.23A31.47,31.47,0,0,0,130.8,31C142.44,30.42,149.57,26.78,149.57,26.78Z"/><path class="cls-3" d="M54.18,22.76a91,91,0,0,1,.25,23.38c-19.2,8.26-36.79,0-36.79,0-2.12-3.43,0-24.31,0-24.31a30.41,30.41,0,0,0,18.46,5C47.31,26.27,54.18,22.76,54.18,22.76Z"/><path class="cls-3" d="M54.62,46.77S56.67,66.5,36.91,66.5c-21.7,0-19.78-19.73-19.78-19.73Z"/><path class="cls-3" d="M149.83,51s2.08,20.09-18,20.09C109.7,71.12,111.65,51,111.65,51Z"/><path class="cls-4" d="M107,73.09l-1,39.06s-2.51,19.71,22.12,19.26,22.12-19.26,22.12-19.26l1.17-39.06Z"/><path class="cls-5" d="M148.64,60.13c1.13,30.95,1.13,30.46.51,47.73-.6,16.56-30.1,7.78-38.87,4.78-1.53-.52-2.3-5.83-2.31-7.45,0-8.1,0-28.47,1.52-45.77"/><path class="cls-2" d="M108.34,18.91s2.82,16.79,22.9,13.83,22.4-13.83,22.4-13.83,1,47.62-3.36,59.79S111.71,87.11,108,78C104.6,69.72,108.34,18.91,108.34,18.91Z"/><path class="cls-4" d="M150.28,112.15s-9.18-15.51-21.39-15.49S106,112.15,106,112.15s1.18,19.26,22.12,19.26S150.28,112.15,150.28,112.15Z"/><path class="cls-1" d="M133.65,43.56c4.77-4.48,3.08-2.48,7.85-2.68s9.08-10.5,9.08-10.5,2.06,18.25-3.24,16.56,0,5.51-5,6.26S133.65,43.56,133.65,43.56Z"/><path class="cls-1" d="M128.76,43.93c-4.77-4.48-3.07-2.49-7.85-2.69s-9.08-10.49-9.08-10.49S109.77,49,115.08,47.3s0,5.52,5,6.26S128.76,43.93,128.76,43.93Z"/><path class="cls-1" d="M132.31,59.1c2.36,2.21,1.52,1.23,3.89,1.33s4.5,5.2,4.5,5.2,1-9-1.61-8.21,0-2.73-2.49-3.1S132.31,59.1,132.31,59.1Z"/><path class="cls-1" d="M129.89,58.91c-2.37,2.22-1.53,1.24-3.9,1.33s-4.5,5.21-4.5,5.21-1-9.05,1.61-8.21,0-2.73,2.49-3.1S129.89,58.91,129.89,58.91Z"/><path class="cls-1" d="M131.3,75.17c2.23,2.1,1.44,1.17,3.67,1.26s4.26,4.91,4.26,4.91,1-8.54-1.52-7.75,0-2.58-2.36-2.93S131.3,75.17,131.3,75.17Z"/><path class="cls-1" d="M129,75c-2.24,2.1-1.44,1.17-3.68,1.26s-4.25,4.91-4.25,4.91-1-8.54,1.52-7.75,0-2.58,2.35-2.93S129,75,129,75Z"/><path class="cls-1" d="M130.67,67.9c1.11-1,.71-.58,1.82-.62s2.11-2.44,2.11-2.44.48,4.24-.75,3.84,0,1.28-1.17,1.46S130.67,67.9,130.67,67.9Z"/><path class="cls-1" d="M129.53,68c-1.1-1-.71-.57-1.82-.62s-2.11-2.43-2.11-2.43-.47,4.23.76,3.84,0,1.28,1.16,1.45S129.53,68,129.53,68Z"/><path class="cls-1" d="M143,77.13s-3.87-9.64,1.1-12.2,1-4.14,0-5.51,2.41,2.18,3.43,0,4.15-6,2.26-8.4c0,0,1.4,14.41-2.69,20.26Z"/><path class="cls-1" d="M117.35,77.57s3.88-9.64-1.09-12.21-1-4.13,0-5.5-2.41,2.17-3.44,0-4.15-6-2.26-8.4c0,0-1.39,14.41,2.7,20.26Z"/><path class="cls-4" d="M13.07,71.42l-1,39.05s-2.5,19.71,22.12,19.26,22.12-19.26,22.12-19.26l1.17-39Z"/><path class="cls-5" d="M54.67,58.46c1.13,30.94,1.13,30.46.51,47.73-.6,16.55-30.1,7.78-38.87,4.78-1.53-.53-2.3-5.83-2.3-7.46,0-8.09,0-28.46,1.51-45.76"/><path class="cls-2" d="M14.37,17.23S17.19,34,37.28,31.07,59.67,17.23,59.67,17.23s1,47.63-3.36,59.8S17.74,85.44,14,76.37C10.63,68.05,14.37,17.23,14.37,17.23Z"/><path class="cls-4" d="M56.31,107.85S47.13,92.34,34.92,92.37s-22.85,15.48-22.85,15.48,1.18,19.26,22.12,19.26S56.31,107.85,56.31,107.85Z"/><path class="cls-1" d="M39.68,41.88c4.77-4.47,3.08-2.48,7.85-2.68s9.08-10.49,9.08-10.49S58.67,47,53.37,45.26s0,5.52-5,6.26S39.68,41.88,39.68,41.88Z"/><path class="cls-1" d="M34.79,42.25c-4.77-4.47-3.07-2.48-7.85-2.68s-9.07-10.5-9.07-10.5S15.8,47.33,21.11,45.63s0,5.52,5,6.26S34.79,42.25,34.79,42.25Z"/><path class="cls-1" d="M38.34,57.42c2.36,2.22,1.52,1.23,3.89,1.33s4.5,5.2,4.5,5.2,1-9-1.61-8.2,0-2.74-2.49-3.11S38.34,57.42,38.34,57.42Z"/><path class="cls-1" d="M35.92,57.24c-2.37,2.22-1.53,1.23-3.9,1.33s-4.5,5.2-4.5,5.2-1-9.05,1.61-8.2,0-2.74,2.49-3.11S35.92,57.24,35.92,57.24Z"/><path class="cls-1" d="M37.33,73.5c2.23,2.1,1.44,1.16,3.67,1.26s4.26,4.91,4.26,4.91,1-8.55-1.52-7.75,0-2.58-2.36-2.93S37.33,73.5,37.33,73.5Z"/><path class="cls-1" d="M35,73.33c-2.24,2.09-1.44,1.16-3.68,1.26s-4.25,4.91-4.25,4.91-1-8.55,1.52-7.75,0-2.59,2.35-2.93S35,73.33,35,73.33Z"/><path class="cls-1" d="M36.7,66.22c1.11-1,.71-.57,1.82-.62s2.11-2.43,2.11-2.43.48,4.23-.75,3.84,0,1.28-1.17,1.45S36.7,66.22,36.7,66.22Z"/><path class="cls-1" d="M35.57,66.31c-1.11-1-.72-.58-1.83-.62s-2.1-2.44-2.1-2.44-.48,4.24.75,3.84,0,1.28,1.16,1.46S35.57,66.31,35.57,66.31Z"/><path class="cls-1" d="M49,75.45s-3.87-9.64,1.1-12.2.95-4.13,0-5.5,2.41,2.17,3.43,0,4.15-6,2.26-8.4c0,0,1.4,14.41-2.69,20.26Z"/><path class="cls-1" d="M23.39,75.89s3.87-9.64-1.1-12.2-.95-4.13,0-5.51-2.41,2.18-3.44,0-4.15-6-2.26-8.39c0,0-1.39,14.41,2.7,20.26Z"/></svg>