<svg id="Layer_1" data-name="Layer 1" xmlns="http://www.w3.org/2000/svg" viewBox="0 0 159.15 147.44"><defs><style>.cls-1{fill:#fee739;}.cls-2{fill:#fee2ca;}.cls-3{fill:#f0efef;}.cls-4{fill:#9cdae8;}.cls-5{fill:#f26722;}.cls-6{fill:#ffe17b;}.cls-7{fill:#fff7b2;}.cls-8{fill:#e87e57;}.cls-9{fill:#b9e4f0;}</style></defs><title>P-fonsiclothes</title><path class="cls-1" d="M51.7,14.17s10-5.39,24.89,0,30,4.42,36.47,0,17.81,34.36,10.4,48.34,2.43,37,2.42,42.43,6.34,27.73-10.32,30.55-86.07,1.84-86-21.72,11.88-20.11,7.47-32.38S23.6,57.84,29.6,48,51.7,14.17,51.7,14.17Z"/><polyline class="cls-2" points="15.18 62.87 40.14 62.87 40.14 126.16"/><path class="cls-3" d="M15.18,63.07l-.12-.5H40.14v.5s-1,.91-4.18.8-8.25-.66-9.66-.65-5.76.46-7.93.46A6.66,6.66,0,0,1,15.18,63.07Z"/><path class="cls-3" d="M120.28,61.9l-.13-.51h25.09v.51s-1,.9-4.18.79-8.26-.66-9.67-.64-5.75.46-7.93.46A6.59,6.59,0,0,1,120.28,61.9Z"/><path class="cls-1" d="M113.69,4.49s21.48-4.34,30.95,9.32-5.6,18.88-4,23.68c0,0-3.06,14.57,8.25,19.24s7,34-1.82,35.33,10.27,16,.54,25.47-26.46,11.17-30.72-4.86,3.31-19.34,3.31-19.34-2.54-4.6-6.82-11.18S124.7,60,120.14,49.8,86.18,27.15,113.69,4.49Z"/><path class="cls-1" d="M49.43,3.31S26-.85,15.76,13s6.12,19,4.38,23.83c0,0,3.36,14.65-9,19.48s-7.61,34.32,2,35.6-11.15,16.21-.54,25.67,28.82,11,33.43-5.21S40,93.1,40,93.1a77.62,77.62,0,0,0,9.91-11.51C54.54,74.91,37.54,59.4,42.48,49S79.42,25.86,49.43,3.31Z"/><path class="cls-4" d="M83.79,137.89v-2.4L82.5,16s-18-8.81-31.13-3.9c0,0,4.2-3.47,3-5.71s-18.1-11.21-38.84,4.8c0,0-15.9,14.73,4.63,25.68,0,0,1.37,14.93-9,19.48,0,0-11.2,4.35-6.48,23.54,0,0-.26,10.1,7.75,12.83A2.55,2.55,0,0,1,14,96.31c-2.34,4.43-6,12.83-3.63,18.22,3.37,7.59,18.07,13.48,28.89,8.17,0,0-8,2,3.17,10C42.41,132.72,62.41,139.36,83.79,137.89Z"/><path class="cls-5" d="M73.92,58.51s-2.58,3.55-1.74,4.89a7,7,0,0,0,3.61,2.49s.27,3,2.68,3.75c0,0,3.09,1.34,4.28,0a4.48,4.48,0,0,0,2.37.18c4.61-1.14,2.1-4,6.65-5s1-5.6,0-9.1-4.9-3.5-12.25-2.8-5.6,5.6-5.6,5.6"/><path class="cls-6" d="M21.06,36.86a144.72,144.72,0,0,0,10.77-12l-2.76-.36c2.51,4.59,7.26,7.65,11,11.2,3.52,3.36,7.16,6.78,11.84,8.42a28.81,28.81,0,0,0,16.38.24,6.08,6.08,0,0,0,4-3.08c2.11-3.66,2.93-6.12,7.39-7.64a1.81,1.81,0,0,0,1-2.59c-.69-1.62-1.86-2.38,0-2.47,1.14-.06,3.7,2,4.53,2.83,2.4,2.26,2.51,5.33,4.14,8C91.6,42.88,96,44.12,100,43.11c2-.52,3-1.82,4.61-3.2A28.92,28.92,0,0,1,114.28,34c8.27-2.79,16.51.93,23.93,4.42,2,1,3.83-2.07,1.77-3-7.12-3.35-14.86-6.91-22.95-5.66a26.06,26.06,0,0,0-10.25,4.1c-4,2.62-7.35,7.83-12.46,4.82-3.35-2-3.37-6.45-6.08-9.28a18.7,18.7,0,0,0-7.91-4.84c-6.63-1.8-4,4.95-2.63,8.24l1-2.59a14.53,14.53,0,0,0-8,6.12c-1.63,2.67-2.44,4.55-5.88,5a30,30,0,0,1-9.68.06c-5.13-1.09-8.93-4.66-12.6-8.17-3.45-3.29-8.13-6.27-10.44-10.49a1.76,1.76,0,0,0-2.76-.35,144.84,144.84,0,0,1-10.78,12,1.76,1.76,0,0,0,2.49,2.49Z"/><path class="cls-7" d="M62.11,43.64c8.51-.88,12.46-14,20-14.22s4.28,10.52,14.51,11.75,3.13-8.33,21.92-10.32,26.7,19.33,29.15-7.13S110.91,3.84,110.91,3.84c-4.2,8.52-28.41,8.53-28.41,8.53-15,.49-28.15-7.81-28.15-7.81S34.08-3.12,24.7,3.84,14.46,8.39,7.92,21.25c0,0-4.81,20.68,7.26,16.42S30.11,17.76,32.94,25.16,48.34,45.06,62.11,43.64Z"/><path class="cls-8" d="M73.92,57.64s-2.58,3.43-1.74,4.73a7,7,0,0,0,3.61,2.41s.27,2.89,2.68,3.63c0,0,3.09,1.29,4.28,0a4.78,4.78,0,0,0,2.37.17c4.61-1.11,2.1-3.83,6.65-4.85s1-5.41,0-8.79-4.9-3.38-12.25-2.71-5.6,5.41-5.6,5.41"/><path class="cls-7" d="M31.19,124.71a27,27,0,0,1-4.12-.13C21,124,2.16,120.47,11.81,101c0,0,2.65-7.43,8.29-5s3.25-3.38,10.3-1.41,4.09,6.2,9.59,4.93,7.54,7,6.83,10S45.42,124,36.31,124.67Z"/><path class="cls-9" d="M120.21,93.33s-9.2,3.62-3.8,17.32,6.85,14.18,16.73,14.06,17.88-8.21,17.32-13.56S148.78,98.89,146,95.39c0,0-.65-4.61-3.63-2.92s-2,1-4.93-.31-2.78-.53-5.83,1.67-5.06-3.82-8.23-2.59S120.21,93.33,120.21,93.33Z"/><path class="cls-5" d="M73.92,94.7s-2.58,3.55-1.74,4.89a6.93,6.93,0,0,0,3.61,2.49s.27,3,2.68,3.75c0,0,3.09,1.34,4.28,0a4.48,4.48,0,0,0,2.37.18c4.61-1.14,2.1-4,6.65-5s1-5.6,0-9.1-4.9-3.5-12.25-2.8-5.6,5.6-5.6,5.6"/><path class="cls-8" d="M73.92,93.83s-2.58,3.44-1.74,4.73A7,7,0,0,0,75.79,101s.27,2.89,2.68,3.63c0,0,3.09,1.29,4.28,0a4.78,4.78,0,0,0,2.37.17c4.61-1.11,2.1-3.83,6.65-4.85s1-5.41,0-8.79-4.9-3.38-12.25-2.71-5.6,5.41-5.6,5.41"/><path class="cls-5" d="M74.65,23.92s-2.59,3.55-1.75,4.89a7,7,0,0,0,3.62,2.49s.27,3,2.67,3.76c0,0,3.1,1.33,4.29,0a4.6,4.6,0,0,0,2.37.18c4.61-1.15,2.1-4,6.65-5s1-5.6,0-9.1-4.9-3.5-12.25-2.8-5.6,5.6-5.6,5.6"/><path class="cls-8" d="M74.65,23.06s-2.59,3.43-1.75,4.72a7.07,7.07,0,0,0,3.62,2.41s.27,2.89,2.67,3.63c0,0,3.1,1.29,4.29,0a4.65,4.65,0,0,0,2.37.17c4.61-1.11,2.1-3.83,6.65-4.85s1-5.41,0-8.79S87.6,17,80.25,17.64s-5.6,5.42-5.6,5.42"/><path class="cls-5" d="M74.16,130.79s-2.59,3.55-1.75,4.9A7.14,7.14,0,0,0,76,138.18s.27,3,2.68,3.75c0,0,3.1,1.33,4.28,0a4.65,4.65,0,0,0,2.38.18c4.6-1.15,2.09-4,6.64-5s1-5.6,0-9.1-4.9-3.49-12.24-2.79-5.6,5.59-5.6,5.59"/><path class="cls-8" d="M74.16,129.93s-2.59,3.43-1.75,4.73a7.06,7.06,0,0,0,3.61,2.4s.27,2.89,2.68,3.63c0,0,3.1,1.29,4.28,0a4.77,4.77,0,0,0,2.38.18C90,139.76,87.45,137,92,136s1-5.41,0-8.8-4.9-3.38-12.24-2.7-5.6,5.41-5.6,5.41"/></svg>