<svg id="Layer_1" data-name="Layer 1" xmlns="http://www.w3.org/2000/svg" viewBox="0 0 261.51 189.48"><defs><style>.cls-1{fill:#b960a6;}.cls-2{fill:#fee768;}.cls-3{fill:#d6f0fc;}.cls-4{fill:#f48372;}.cls-5{fill:#fff;}.cls-6{fill:#e8e8ea;}.cls-7{fill:#808285;opacity:0.6;}.cls-8{fill:#f0efef;}.cls-9{fill:#ddd;}.cls-10{fill:#f7f7f7;}.cls-11{fill:#f1f0f2;}.cls-12,.cls-13,.cls-14,.cls-24{fill:#d6d4d4;}.cls-12,.cls-25{opacity:0.56;}.cls-13{opacity:0.53;}.cls-14{opacity:0.51;}.cls-15,.cls-16,.cls-17,.cls-18,.cls-19,.cls-20,.cls-21,.cls-23,.cls-27,.cls-28,.cls-29,.cls-30,.cls-31,.cls-32,.cls-33,.cls-34,.cls-35,.cls-36,.cls-37,.cls-38{fill:none;stroke-miterlimit:10;}.cls-15,.cls-16{stroke:#6965ad;stroke-linecap:round;}.cls-15{stroke-width:0.52px;}.cls-16{stroke-width:0.77px;}.cls-17,.cls-18,.cls-19,.cls-20,.cls-21{stroke:#6273b7;}.cls-17{stroke-width:0.08px;}.cls-18{stroke-width:0.07px;}.cls-19{stroke-width:0.06px;}.cls-20{stroke-width:0.04px;}.cls-21{stroke-width:0.04px;}.cls-22{fill:#6273b7;}.cls-23,.cls-27,.cls-28,.cls-29,.cls-30,.cls-31,.cls-32,.cls-33,.cls-34,.cls-35,.cls-36,.cls-37,.cls-38{stroke:#f8aaa5;}.cls-23{stroke-width:0.15px;}.cls-24{opacity:0.3;}.cls-25,.cls-26{fill:#f1f2f2;}.cls-26{opacity:0.43;}.cls-27{stroke-width:0.26px;}.cls-28{stroke-width:0.17px;}.cls-29{stroke-width:0.28px;}.cls-30{stroke-width:0.16px;}.cls-31{stroke-width:0.19px;}.cls-32{stroke-width:0.28px;}.cls-33{stroke-width:0.16px;}.cls-34{stroke-width:0.19px;}.cls-35{stroke-width:0.2px;}.cls-36{stroke-width:0.12px;}.cls-37{stroke-width:0.14px;}.cls-38{stroke-width:0.27px;}.cls-39{fill:#f8aaa5;}.cls-40{fill:#c1bfbf;}</style></defs><title>Logo-Makeyourfonsi</title><path class="cls-1" d="M8.29,35.28c3.77-1.08,5.92,1.48,6.84,3a.51.51,0,0,0,.9,0,17.25,17.25,0,0,1,2-3A4.75,4.75,0,0,1,20,33.91a4.25,4.25,0,0,1,3.53.17,6.05,6.05,0,0,1,3.31,5.11c.18,3.23.82,9.35,3,12.32,3.09,4.15,3.47,5.38,3.05,7.61s-4,4.63-6.56,2.87-3.57-5.9-3.28-8.91-2.25-11.95-3.32-8.8,0,8.41,2.26,13.56-2.6,5.79-3.8,5.68S14,62,15,57.48c.74-3.63-2.52-9.65-3.87-11.93a.85.85,0,0,0-1.5.06c-.47,1-.56,2.69,1.59,5.65,3.76,5.22,2.47,14.52-.32,16.39s-6.69-.31-7.07-3.72c-.23-2.07.28-16.29.09-22a6.75,6.75,0,0,1,4.27-6.56Z"/><path class="cls-1" d="M28.77,42.52c.36,3.58,1.46,7.44,4.23,10,0,0,2.45,3.15,2.17,6.52A2.68,2.68,0,0,0,37,61.8c1.89.55,4.47.71,5.86-1.72,2.35-4.13.73-7-1.18-8.06-1.21-.66-.41-1.21.26-1.66a6.6,6.6,0,0,0,2.62-2.5,4.76,4.76,0,0,0-.1-5.15c-2.52-4-7.89,1.11-7.34,4.25,0,0-2.46-4.9.94-6.6s9.65,1.4,8.33,6.21,1.16,13.11,3.09,13.69,9,1.45,8.13-6.86S49.7,31.19,41.06,31.83c-1.4.1-2.66.21-3.79.33A9.49,9.49,0,0,0,28.77,42.52Z"/><path class="cls-1" d="M73.81,43.19C80.3,44.83,81.37,51,83.73,57s-4.8,5.22-7.44,4.43.13-4.64,1.21-8.25c.8-2.68-4.45-4.47-7.19-5.2a5.61,5.61,0,0,0-3.83.27c-1.16.53-1.91,1.43.32,2.78,4.11,2.49,5,6,1.46,9.53s-8.06-.17-8.06-.17c1.17-11.61-6.26-22.21-10-26.7a4.71,4.71,0,0,1,1.64-7.29c1.65-.76,4.06-1,7.55-.08,10.51,2.78,1.45,15,1.45,15s.23,2.23,2.2.48S70,33.21,69.91,28s9.31-.45,7.22,4.14-7.64,9.42-5.48,10.25Z"/><path class="cls-1" d="M79.66,24.72a2.06,2.06,0,0,0-1.58,2.56c1.89,6.79,7.66,27.76,8,32,.48,5.55,13.94,3.23,17.79.31s8.22-7,4.57-9.49a7.91,7.91,0,0,0-12.13,4.37c-1.5,4.61-5.86.14-6.82-4.71a4.75,4.75,0,0,1,3.81-5.59,67.44,67.44,0,0,0,7.24-1.74c5.27-1.57,2.91-7.12-2-5.92S90.93,40,89,39.12,81.38,31,86.16,30.26a5.05,5.05,0,0,1,5.16,2.11,4.11,4.11,0,0,0,4.28,1.47c2-.48,4.08-1.44,4-3.32a8.36,8.36,0,0,0-9.32-7.66C87.77,23.16,82.61,24.14,79.66,24.72Z"/><path class="cls-1" d="M29,70.86a7.34,7.34,0,0,1,5.1,6.28c.84,8.07,4.4,27.62,5.54,32.47C41.22,116.22,33.2,123,20,116.9c0,0-13.31-6.13-12.45-12.17s4.23-11.3,10.79-9,5.15,5.92,2.7,9.21.49,5.31,3.39,4.25,6.57-7.85,2.3-12.37S18.11,91.5,12.22,90c-6.17-1.57-8.93-4.76-7.37-14a7.19,7.19,0,0,1,3.81-5.28,7.41,7.41,0,0,1,6.43.09c6.68,2.85.59,11.22,3.6,13s3.61-4.79,3.14-9.61a4,4,0,0,1,.27-2c.53-1.24,1.95-2.71,5.7-1.78C28.24,70.63,28.65,70.74,29,70.86Z"/><path class="cls-1" d="M51.8,69.31S36.87,73.65,39,99.43s21.36,17.6,24.5,13.34c0,0,12.23-17.17,2-37.17A12,12,0,0,0,53.64,69,11,11,0,0,0,51.8,69.31Z"/><path class="cls-1" d="M89,86.75C85.57,72.88,80.43,69.87,74.9,69a6.51,6.51,0,0,0-7.14,8.52l.09.25a15.53,15.53,0,0,0,3.58,5.59c2.29,2.35,6.18,8,4.58,17.76-2.22,13.59,7.4,23.39,16.26,18.48s7.09-14,7.38-24.38,5.95-19.62,6.1-23.24-16.11-8.78-16.24,5S95.45,92.75,92,99.31s-7.51,2.24-7.51,2.24-2-2.21.9-3C92,96.85,89,86.75,89,86.75Z"/><path class="cls-1" d="M116.28,64A11.56,11.56,0,0,0,107,72.72c-1.37,5.52-4.7,15-5,18.61a188.27,188.27,0,0,0-.68,24.24,3.44,3.44,0,0,0,3.24,3.31c5.42.32,16,0,15.44-7.36-.73-9.92-8.77-11.54-8.77-11.54s-2.24-2.62,4.36-1S125,109.12,124,113.1s2.72,6.42,6.43,5.87,10.33-2.69,6.39-11.23-8.42-13.45-15.88-13.47-9.56-10.92-7.21-13.75,11.41-2,10.86.49-1.73-1.08-6.82.36c-2,.57-5.65,8.17,2.89,10.76s17-4.27,15.9-15.55C135.78,68.35,125,62.63,116.28,64Z"/><path class="cls-1" d="M20.31,125.86A13.3,13.3,0,0,0,14,140.25c2.17,9.76,4.3,26.32,4.08,33-.24,7.07,2.94,20,12,15.12s12.19-7.39,7.5-19.63,5.1-12.7,5.1-12.7,11.54-.38,8.82-6.77-7-3.52-11.64-.72-12.7-3.12-8.57-9.26,6.69.93,10.65.83,8.33-1.89,8-10.9C49.76,121.9,33.2,118.37,20.31,125.86Z"/><path class="cls-1" d="M117.54,150.92a8.61,8.61,0,0,0-2-4.64c-3.57-4.27-7.32-3.09-7.57-.6-.29,2.91,11,8.88,10.36,21.06s-6.67,11.55-14.24,11.18-9.24-4-4.48-16.42c2.79-7.28-1.48-18.78-5.5-27.06a9,9,0,0,1,7-12.92,52.23,52.23,0,0,1,6.48-.39c7.07,0,10.55,7.44,11.93,11.53a62,62,0,0,0,2.53,6.34c8.52,18.32,8.2,17.83,9.93,15.66s-1.06-8.44-6.23-15.12-9.35-20.38,12.56-17.88c10.32,1.18,9.4,32.17,8.19,49.31-.47,6.69-4.79,10.05-10.52,9.06a13.06,13.06,0,0,1-5.4-2.38l-5.47-4C121.47,170.89,118.14,156.66,117.54,150.92Z"/><path class="cls-1" d="M178.39,131.58a2.86,2.86,0,0,1-3.73,1c-1.32-.63-3.17-.93-4.31,1.36-1.92,3.87-.84,8.87,13.44,8.86,8.71,0,9.54-17.89.68-22.44s-16.41-5.45-20.31-4.12-19,7.06-14.13,26.18c0,0,2.29,9.13,15.06,12.58s13.9,7.79,7.56,12.57-10.39-.5-7.72-4-.44-7.48-6.33-6.47-11.77,6.19-2.25,18.21c6.75,8.53,19.67,6.37,28,2,5.78-3,9.61-9,9.17-15.49-.26-3.92-2-8.31-7.53-11.63a29.94,29.94,0,0,0-14.2-6,11.41,11.41,0,0,1-7.45-3.93c-1.52-1.88-2.48-4.38-1-7.24,3.38-6.37,8.72-5.58,10-5.66C174.49,127.38,180,128.74,178.39,131.58Z"/><path class="cls-1" d="M198.76,114.59A14.51,14.51,0,0,0,193.44,127c.32,5.48.32,6.89,4.19,18.28,2.86,8.42-1.31,24,2.49,30.54s9.35,4.41,10.36,3,4.6-5.33,1.81-13.27-6.21-29.3-3-36.7-.7-15-5.85-15.87A6.14,6.14,0,0,0,198.76,114.59Z"/><path class="cls-1" d="M65.8,121.11s-17.65,3.2-10.47,34.67,28.33,21.8,28.33,21.8S97.13,174,93.84,147.76,78.12,117.87,65.8,121.11Z"/><path class="cls-2" d="M3.8,56.33s-.25,6.44,0,7.6c0,0,5.4-3.49,9.72-4.65A15.45,15.45,0,0,0,12.61,54S7.07,57.91,3.8,56.33Z"/><path class="cls-2" d="M14.56,53.14s.76-2.26,5.27-1.63c0,0,1.61,5.14,2.15,6.33,0,0-.35-1.4-7.19,1.09C14.79,58.93,15.09,54.8,14.56,53.14Z"/><path class="cls-2" d="M22.94,51a1.48,1.48,0,0,0,1.4-.19,35.38,35.38,0,0,0,3.6-3.59,26,26,0,0,0,1.24,3.29s-3.35.27-3.91,2.73c-.6,2.65-.85,2.9-2,3.63A10.53,10.53,0,0,1,23,53.08,15.13,15.13,0,0,0,22.94,51Z"/><path class="cls-2" d="M30.93,49.9a9.38,9.38,0,0,1,8.93,1.77s1.26,1.49,2.67.95a3.47,3.47,0,0,0-1.16-.93c-.56-.31.89-1.53,1.41-1.83s4.31-2.89,1.71-7.15a8.08,8.08,0,0,1-4,4.26c-2.32,1.23-3.66-.7-6.13-.94,0,0-3.26-.72-4.79.55A11.66,11.66,0,0,0,30.93,49.9Z"/><path class="cls-2" d="M46.25,52.45s10.56,2.14,10.56-3.23c0,0-1.74-6.71-4.92-10.52a2.9,2.9,0,0,1-3,3.7,14.78,14.78,0,0,1-4.42-1.08s2.22,2,1.9,4.15A20.62,20.62,0,0,0,46.25,52.45Z"/><path class="cls-2" d="M78.94,46.41s-4.06-2.07-12.26-.62c0,0-2.59.49-3.59,4.69,0,0-.7,5.6-3.65.49S56,41.29,53.11,37.47c0,0,3.39,3.25,5.52,2.59s4.83-3.42,4.83-3.42a18.58,18.58,0,0,1-2.58,4.65s.44,2.25,2.68,0,5-7.68,5-7.68S70.12,33,70,37.16,71.33,41,71.33,41s-.64,1.09,1.27,1.74S76.57,43.45,78.94,46.41Z"/><path class="cls-2" d="M103.21,38.07a2.5,2.5,0,0,1,0,2.91c-1.61,2.19-6.72,2.57-9.89,3.18-2.82.53-3.77,3.56-3.77,3.56-.48-.93-6.31-1.24-6.31-1.24l-1.3-5A6.65,6.65,0,0,0,89,43.35c4.53-1.36,2.53-3.28,7.68-4.51S103.21,38.07,103.21,38.07Z"/><path class="cls-2" d="M27.94,105.29a17.61,17.61,0,0,1,4.17-6.87C35.35,95,37,95.76,37,95.76L35,83.68s-4.71,1.76-7,5.07c-1.88,2.67-2.2,6.86-3.57,5.92C24.37,94.67,30.11,100.08,27.94,105.29Z"/><path class="cls-2" d="M91,100.89s.84,1,3.32-1.72a36.86,36.86,0,0,1,5.34-4.76s1.63-9.47,2.59-12-12.77-5.48-12.77-5.48-.5,8.56,2.7,14.49C93.43,93.68,91,100.89,91,100.89Z"/><path class="cls-2" d="M129.88,85.24c-.84-.28-1.66-.66-1.61-1.69.06-1.33,2.25-2.57.46-3.41s-4.15.87-4.15.87c-.49,1.06-.93.85-.93.85-4.05-1.81-6.2-.52-6.2-.52s-5.43,2.4-.63,8.83c4.65,6.22,13.2,1.5,14.88-.18a12.66,12.66,0,0,0,4.5-7.54S133.78,86.53,129.88,85.24Z"/><path class="cls-2" d="M41.62,156.35c8.5-.64,11.56-2,10.3-6.73S45,144,42.57,146.31a10.57,10.57,0,0,1-3,2,5.92,5.92,0,0,1-5.66-.11l0,0c-5.9-3.16-2.57-8.87-2.57-8.87a6.6,6.6,0,0,1-8,3.43c-4.71-1.36-6.61,5.38-7.13,7.79a3.94,3.94,0,0,0,0,1.64c.43,2.24,1.84,8.34,4.48,8.41,3.23.1,2.95-4.18,8.76-3.9A99.82,99.82,0,0,0,41.62,156.35Z"/><path class="cls-2" d="M95.28,136.86s4.57,11.69,4.88,14.83c0,0,3.11-1.9,5.59,1.89s5.81-2.91,5.81-2.91-4.37-4.87-3.07-6.22c.93-1,2.47-.85,4-.12a9,9,0,0,1,4.82,6.2c.19.81.37,1.67.47,2.39.24,1.85,2.8,7.8,6.59,6.25s16.37,1.57,14.71-7.9c-.68-3.86,7.06-12.58,7.2-15.17s-1.54-7-1.54-7a13.46,13.46,0,0,1-8.84,7.56s-12.61-3.48-13.75-4.17a14.94,14.94,0,0,0,3.64,7c2.37,2.79,6.79,12.81,6,14.39-.35.71-1.17-.3-2.1-1.05-1.34-1.08-3.32-4.67-4-6.25-1.79-4-5.87-13.11-6.12-14-.32-1.1-14.77-5.76-18.4-1.45S95.28,136.86,95.28,136.86Z"/><path class="cls-2" d="M151.58,145.79s6.31,9.61,16.51,7.41,7.53,5,11.92,5.18,8.45-6.3,8.45-6.3-6.43-7.16-21.33-9.37a6.49,6.49,0,0,1-5.39-3.73,8.14,8.14,0,0,1-.81-3.36,11.31,11.31,0,0,0-.91-4.26c-1.1-2.27-4.61-4.08-9.49-3.54C150.53,127.82,145.72,138.25,151.58,145.79Z"/><path class="cls-2" d="M193.44,127s3.42-4.36,8.26-4.94,8.64.85,8.62,2.47-2.57,15.4-2,20.35-3,15.34-4.95,2.86-5.23-7.82-5.23-7.82l-1.28,3.09S193.87,138.41,193.44,127Z"/><path class="cls-3" d="M101.77,94.41c0-.62-.75,10.44-.58,14.46,0,.43,5.22,4.61,7.89.68s-.78-7.64,5.37-8.15c0,0-3-1.66-3.53-2.49-.42-.62,7.35.86,8.63,2.17,0,0,2.08,2.11,3.46,1.84s1.23-1.47,1.92-2.78,7.28-1,9.28,2.67c0,0-3.43-6.19-8.69-7.8a16.17,16.17,0,0,0-5-.75c-2.17,0-5.21-2.84-5.21-2.84"/><path class="cls-3" d="M3.89,50.23s2.51-6,5.71-4.62c0,0-.67.87.15,3.17.74,2,2.67,3.91,2.86,5.23a15.48,15.48,0,0,1-5.27,2.47S4.8,57,3.8,56.33C3.8,56.33,4,51.23,3.89,50.23Z"/><path class="cls-3" d="M11.1,45.55a49.82,49.82,0,0,1,3.46,7.59s.86-2.31,5.27-1.63c0,0-.89-4.66-.22-6.87.36-1.18.85-1,.85-1,1.38.83,2.48,7.29,2.48,7.29,1.32,1.06,5-3.78,5-3.78L27.46,45s-4.05-3.79-6.84-2.72-2.36,4-4.51,4.9-4.83-1.34-4.83-1.34"/><path class="cls-3" d="M38.09,40.36s2.4-1.43,6.36,1c0,0,4,2,6.3.58a2.65,2.65,0,0,0,1.14-3.2,16,16,0,0,0-5.27-5.31s-5.58-3.2-8.26,3.83a11.44,11.44,0,0,1-9.28,7.5,9.51,9.51,0,0,0,.45,1.86s2.41-1.92,7.62.38,7.34-4.25,7.34-4.25a3.08,3.08,0,0,0-2.94-1.46c-3.69.58-2.27,2.24-4.87,3.84,0,0-.44-3.58,1.41-4.73"/><path class="cls-3" d="M50.24,33.65s7.42,2.26,10.58-1.84c0,0,1.2-2.35,2.74-2.35s1,5.73-.27,7.62c-.9,1.31-3.42,3.35-5.73,3.05S53,37.47,53,37.47Z"/><path class="cls-3" d="M68.54,33.61a26.94,26.94,0,0,0,1.3-4.47c.07-1.17,8.27.77,4.27,7.73A35,35,0,0,0,71.33,41s-1.4.32-1.33-3.82S68.54,33.61,68.54,33.61Z"/><path class="cls-3" d="M89,39.12a20.29,20.29,0,0,1-2.1-1.84c-2.12,2.64-6.1-.09-6.1-.09l1.14,4.28s2.73,2.78,5.67,2.39a8.38,8.38,0,0,0,4.78-2.5,8.6,8.6,0,0,1,4.32-2.52,19.54,19.54,0,0,1,6.5-.77s-1.13-3.26-7-.88S89.6,39.39,89,39.12Z"/><path class="cls-3" d="M91.32,32.37s2.3-3.33,8.25-1.85c0,0,.67,1.91-3.42,3.17C92.54,34.8,91.32,32.37,91.32,32.37Z"/><path class="cls-3" d="M39.67,109.61h0L37,95.76s-6.08-3.62-8.67,8.44c-.85,4-5.42,5.14-5.42,5.14a2,2,0,0,1-1.69-.64,3,3,0,0,1-.13-3.75c1.45-2-7.41-1.23-7.41-1.23-3.8.29-4.15,5.88-1.82,8.1a57.86,57.86,0,0,0,8.09,5.37,15.23,15.23,0,0,0,5.89,2,15.55,15.55,0,0,0,8.32-.64C41.71,115.67,39.67,109.61,39.67,109.61Z"/><path class="cls-3" d="M41.74,110.42s7.86-.09,10.18,3.41,10,.44,10,.44,4.68-2.48,6.64-13.46c0,0-3.13,6.7-5.28,2.52l-.5-10.16L41.74,94.41l-3.2.11S39.13,106.69,41.74,110.42Z"/><path class="cls-3" d="M99.69,94.41,91,100.89s-1.82,2.53-4.45,1.9c-2.36-.56-4.64-4.2-4.64-4.2L76.29,99s-2.34,8.29.7,13.34c0,0-1.1-5,4.27-4.34s3.73,8.7,8.65,7.51c0,0,8-.49,9.27-6.14s.51-15,.51-15"/><path class="cls-3" d="M18.27,127.33s3.9,10.91,9.67,12.73a2.92,2.92,0,0,0,3.36-.75c1.4-1.65,1.79-2.32,3.76-2.48,1.44-.12,3,4.62,8.48,4.53,4.12-.07,9.51-4.88,7.36-14-2.42-10.28-23.22-5-25.81-4.08A21.81,21.81,0,0,0,18.27,127.33Z"/><path class="cls-3" d="M95.28,136.86s3.16,6.13,6.44-.81,17.87-3.39,17.87-3.39-2.62-13.92-16.45-11.79C85.84,123.55,95.28,136.86,95.28,136.86Z"/><path class="cls-3" d="M122.18,132.49s12.63,6.79,17.38,2.91c4.91-4,5.21-6.3,5.21-6.3s-.9-8.27-8.75-8a31.67,31.67,0,0,1-3.76-.26C128.27,120.56,119,121.61,122.18,132.49Z"/><path class="cls-3" d="M150.53,127.82s9.8-.72,10.15,6.52c.42,8.89,6.45,8.37,6.45,8.37s-5.15-3.53-4.46-7.51c.57-3.35,6-8.11,10.8-7.18,3.05.6,4.18,1.56,4.64,2.59a1.47,1.47,0,0,1-.37,1.71c-.61.51-1.61-.45-3.08-1.06-2.65-1.09-4,1.15-4.73,3.76,0,0-1.87,4.82,3.12,6.71,6.92,2.63,13.83,1.89,15.52-1.4,0,0,5-3.66,3-12.14,0,0-3.07-9.29-13.12-11.26,0,0-9.45-3.38-17.22.41C154,120.83,152.94,121.26,150.53,127.82Z"/><path class="cls-3" d="M193.44,127s1.55,3.7,3.42-.85,1.28,2.33,3.61,6.18,8.38-2.35,8.38-2.35,3.26-5.23.48-13.09-8.78-5.39-10.57-3.71A16.94,16.94,0,0,0,193.44,127Z"/><path class="cls-2" d="M101.77,94.41s3.52,4.44,6.86,2.52,3.86-5.21,6.68-5.51c0,0-3-3.38-1.93-10.36,0,0-2,3.54-5.69,4.24a4,4,0,0,1-3.9-1.55h0S101.35,91.15,101.77,94.41Z"/><path class="cls-4" d="M61.89,171.33s3.34-.32,3.34-3.27,4.59-4.17,8.75-1.92,8.67,5.18,10.69,2,8.81-4,8.81-4,2.51-7.91.87-12S55.73,159,55.73,159,58.21,168.47,61.89,171.33Z"/><path class="cls-2" d="M72.61,84.72s5.21,6.12,3.4,16.39c0,0,1.08-3.53,3.64.53s4.85-.09,4.85-.09-1.13-2.2,1-2.56,6-1.57,3.76-12.14a19.23,19.23,0,0,0-.88-3l-1.8-4.59s-5.32-.75-5.9,4.4C80.57,84.67,72.61,84.72,72.61,84.72Z"/><path class="cls-2" d="M38.84,96s4.59,11.07,9.5,6.5,12.87-7,14.61-.27,5.63-1.39,5.63-1.39S71,92.49,68.87,85s-27.93-3.72-27.93-3.72S37.53,90.94,38.84,96Z"/><path class="cls-2" d="M53.84,136.44s-1.65,17.51,3,24.85c4,6.22,4.58-2.51,12.9-4.88,5-1.42,10.44,2.9,14,6.61a3.83,3.83,0,0,0,6.43-1.54c.29-1,.59-2.1.89-3.34l3.22-6s-1.2-19.49-8.17-26"/><path class="cls-5" d="M53.3,106.62A5.22,5.22,0,0,0,56.9,105l.24-.27c4.11-4.67,3.39-10.28-1.25-13.31s-3.71-4.85-1.61-6A1.19,1.19,0,0,0,55,84a2.36,2.36,0,0,0-3.47-1.28,3.8,3.8,0,0,0-1.67,4.57C50.75,91,52.89,91,55.7,96.44c.85,1.65,1.45,4.49-.64,5.79a2.88,2.88,0,0,1-2.72.14,1.61,1.61,0,0,1-.68-.54c-.7-1-4.09-.81-3.21,1.68C49.27,105.82,50.83,106.53,53.3,106.62Z"/><path class="cls-4" d="M24.29,55.86c1.67-2.38-.13-4.7,4.89-5.38A33.85,33.85,0,0,1,32.64,56c.5,1.42,1.77,5-2.65,6.52-5.11,1.8-6.56-5-6.56-5l-.14-.66"/><path class="cls-3" d="M54,135.41a2.51,2.51,0,0,0,1.41,2.64c2.06,1,5.67,2.35,8.58,1.91,4.34-.66,5.06-5.23,8.09-4.53,2.66.62,3.08,3.42,8.11,2.77a2.44,2.44,0,0,0,2.12-2.53,7.34,7.34,0,0,1,3.08-6.55l.4-.26a2.51,2.51,0,0,0,.55-3.73c-2.57-3.06-8.11-7.88-16.57-6C58.52,121.53,55.12,127.62,54,135.41Z"/><path class="cls-4" d="M13.52,59.28l.07.41s.33,8.41-4.75,8.65c-4.7.21-5-4.41-5-4.41a31.89,31.89,0,0,1,9.72-4.65"/><path class="cls-4" d="M21.79,57.51a5.24,5.24,0,0,1,.71,1.9S23.61,63,18.94,63.5c-4.44.44-4.15-4.57-4.15-4.57S20.94,56.52,21.79,57.51Z"/><path class="cls-4" d="M39.86,62.14c-5.62.24-4.47-2.76-5.06-5.3l0-.15a12.16,12.16,0,0,0-2.71-5.14,5.47,5.47,0,0,1-1.13-1.65s5.11-1.78,8.93,1.77c0,0,1.71,1.5,2.67.95,0,0,3.34,2.58.36,7.46A3.77,3.77,0,0,1,39.86,62.14Z"/><path class="cls-4" d="M46.25,52.45s5.8,1.38,9.52-.88a2.86,2.86,0,0,0,1-2.35s3.44,9.65-2.74,11.12S46.83,58.85,46.25,52.45Z"/><path class="cls-4" d="M78.94,46.41C84.21,52.74,84.24,59,84.24,59c.34,3.07-4.52,4.67-8.19,3.1s2.18-8,1.42-10-8.71-5-11-3.8S66.8,51,66.8,51c5.47,2.84,3.46,7,3.46,7-3.14,8-10.06,2.37-10.06,2.37.35-3-1.26-11.13-1.26-11.13s1.61,3.24,3.3,2.42.48-5.21,4.44-5.85S77,44.12,78.94,46.41Z"/><path class="cls-4" d="M22.1,72.3c1.35-3.1,5.83-2.22,5.83-2.22,8.33.62,7.06,13.6,7.06,13.6l-4.82,2.89c-4.82,2.89-3.4,10.26-5.8,8.1s-10.25-4.19-10.25-4.19C.8,89.35,4.85,76,4.85,76s.65-5,5.39-5.82c4.55-.79,7.8,1.6,8.14,2.8,0,0,1.09,3.34.32,5s.11,5.5,1.42,5.1C22.17,82.51,20.94,74.94,22.1,72.3Z"/><path class="cls-4" d="M95.92,55.38s1.37-5.17,5.12-6.16c0,0,3.12-2,7.42.87a2.64,2.64,0,0,1,1.37,2.37c-.53,5.18-6.5,8.91-14.68,10.2s-9-2.08-9.05-3.39-2.86-12.79-2.86-12.79,5.92.23,6.31,1.24A9.87,9.87,0,0,0,92,55C94.16,57.58,95.92,55.38,95.92,55.38Z"/><path class="cls-4" d="M113.38,81.06c.6-1.73,5.76-2.87,9.18-1.88,2.28.65,2,1.83,2,1.83s3.32-2,4.51-.58-3.28,3.51.79,4.81,6.32-2.79,6.32-2.79C140.77,65.63,121.54,64,121.54,64c-12-2.11-14.15,7.15-14.55,8.74-.19.77-2.81,9.73-2.81,9.73s-1.58,2.56,1.67,3C105.85,85.49,111.79,85.64,113.38,81.06Z"/><path class="cls-4" d="M89.56,79.36s4.51-.94,6.25,1.3,6.47,1.75,6.47,1.75,9.61-14.34-2.72-15S89.56,79.36,89.56,79.36Z"/><path class="cls-4" d="M16,151.27s1.6,9.5,5.43,9.16a7.52,7.52,0,0,0,3-2.33c1.81-2,6.43-1.63,10.94-1.51a23.05,23.05,0,0,0,6.89-.65s-6.24,1.33-5.79,8.57l2.16,7.1c.66,4.48-2.4,14.76-11,5.93a11,11,0,0,0-7.68-3.33,2.29,2.29,0,0,1-1.81-.94Z"/><path class="cls-4" d="M105.14,152.77a9.78,9.78,0,0,0,1.31,1.5,1.41,1.41,0,0,0,1.52.22,8.59,8.59,0,0,0,3.59-3.82c6.45,4.74,6.76,13.52,6.76,13.52s.05,2.55-7.67,4.78-12-4.78-12-4.78a37.34,37.34,0,0,0,1.73-7.81,15.21,15.21,0,0,0-.07-3.09l-.18-1.6A3.8,3.8,0,0,1,105.14,152.77Z"/><path class="cls-4" d="M120.26,163.62s1.45,5.14,7.76,3,5.35-6.38,8.78-6,9.93,4.18,10.42-2.75c0,0,1-16.89-.91-21.82,0,0-7.64,11.49-7.24,14.57s-.47,7.15-5.84,7.33a38.34,38.34,0,0,0-8,.89,6,6,0,0,1-3.28,0,3.81,3.81,0,0,1-1.69-1,13.33,13.33,0,0,1-2.45-5S118.8,160.19,120.26,163.62Z"/><path class="cls-4" d="M198.56,160.38s2.86-5.6,3.32,1.64,2.8,1.51,2.8,1.51-5.26,14.59.93,11,5.83-11.66,5.83-11.66-2.12-12.49-3.12-17.92-6.75-8.4-13.43-7.09c0,0,4,10.87,3.8,18.52Z"/><path class="cls-4" d="M188.46,152.08c13.78,12.63-1.61,23.76-1.61,23.76,2.72-2.83,1.72-15.9-3.19-14.69s-2.22,4-4.35,3.7-2.91-2.69-2.91-2.69-3.17-5.1-11.31-7.11C153.4,152.16,151,144.92,151,144.92s5.79,5.54,12.29,7.56a12.58,12.58,0,0,0,6.33.29,6.88,6.88,0,0,1,5.18.69c2.78,1.85,3.71,4.35,6.58,3,0,0,2.88-.46,4.08-1.67S188.46,152.08,188.46,152.08Z"/><path class="cls-4" d="M151.42,163.23s.82-6.64,8.45-6.63c7.25,0,7.28,3.82,5.52,6.33a5.73,5.73,0,0,0-.51,5.28s-1.45,2.21-2.39-.41-.87-5-2.75-2.89-4.63,2.55-5,.47S151.42,163.23,151.42,163.23Z"/><path class="cls-4" d="M72.61,84.72s4.73,2.71,8.07-1,2.9-4.85,5.9-4.4c0,0-3.59-12.16-14.5-10.38S70.1,83.24,72.61,84.72Z"/><path class="cls-4" d="M53.21,82.46a3.71,3.71,0,0,0-3.37,2.26c-3.31-4.37-9.67-1.08-9.67-1.08S43.36,69.8,53.64,69s14,8.61,15.23,16c0,0,0,4.59-5,2.69S58.91,83,55,84.45C55,84.45,54.52,82.49,53.21,82.46Z"/><path class="cls-5" d="M75.2,170a8.14,8.14,0,0,0,5.46-2.76l.35-.44c6-7.59,4.4-16.23-3.05-20.56-7.29-4.23-6.16-7.21-3-9.11a1.85,1.85,0,0,0,.92-2.37,3.66,3.66,0,0,0-5.49-1.69c-1.94,1.22-3.32,3.7-2.22,7.22,1.77,5.65,5.1,5.53,9.91,13.71,1.46,2.48,2.62,6.85-.51,9a4.47,4.47,0,0,1-4.22.45,2.54,2.54,0,0,1-1.1-.78c-1.17-1.58-6.41-.92-4.84,2.87C68.87,169.13,71.35,170.09,75.2,170Z"/><path class="cls-6" d="M228.05,26.71S242,41.51,241.4,53.09c0,0,7.37-4.24,7.5-11.37s-2.42-9.63-1-17.31c1.27-6.68,1.43-8.89,5.84-11.42a17.11,17.11,0,0,1,3.59-1.49c1.74-.51,4.58-1.7,4.08-3.93-.71-3.19-6.17-5.88-10.76-4.4s-11,7.81-12,13S228.05,26.71,228.05,26.71Z"/><path class="cls-7" d="M216.74,94.91s-16.11,5.64-38,2.9c0,0-24.92-7.29-29.84,3.25-.28.59-3.21,9.22,56.55-1.8"/><path class="cls-6" d="M159.85,62.47s-2.17-.94-2.48-1.83-4.58-16.39-14.71-11.72S142,68.85,150.72,72s14.83,4.74,14.83,4.74,3.91,7.56,6.38,9c0,0-15.9-2-23-7s-21.24-13.51-14.53-30,25.17-5.28,25.82-1.5C160.19,47.2,158.24,59.07,159.85,62.47Z"/><path class="cls-8" d="M167.24,39.88a52.09,52.09,0,0,0-1.93-8.73s5.36,6.73,27.67-.86c18.78-6.39,20.51-15.79,20.51-15.79a26.57,26.57,0,0,0,3.59,7c1.27,1.56-2.42,10.94-21.54,17.23C170.49,47,167.24,39.88,167.24,39.88Z"/><ellipse class="cls-9" cx="189.27" cy="22.51" rx="25.63" ry="9.38" transform="translate(4.03 67.42) rotate(-20.41)"/><ellipse class="cls-10" cx="189.12" cy="21.6" rx="22.21" ry="8.27" transform="translate(3.44 63.5) rotate(-19.23)"/><path class="cls-11" d="M180.31,10.87s-5.46-3.47-1.53-8A8,8,0,0,1,185.32,0c2.34.17,4.84,1.53,4.6,6.63,0,0,8.78-.4,12.17,5.2,0,0,4.15.32,4.12,3.87s-14.88,10.55-14.88,10.55-17.11,6.2-18.85-.12a3.29,3.29,0,0,1,1.13-3.57C175.49,20.92,173.39,14.85,180.31,10.87Z"/><path class="cls-8" d="M159.85,62.47S212.77,65,232.08,30.65c0,0,8.4,6.43,9.45,20s-47.29,40.5-73.06,32.07C168.47,82.67,161.53,75.52,159.85,62.47Z"/><path class="cls-12" d="M216.74,21.9s32.9,49.52,3.24,71.48c0,0,32.69-11.38,19.75-51.25a3.52,3.52,0,0,0-.27-.63C238.05,38.88,227.72,20.41,216.74,21.9Z"/><path class="cls-13" d="M219.11,90.55S226,86.89,226.28,80c0,0-4,7.94-9.54,8.4S219.11,90.55,219.11,90.55Z"/><path class="cls-14" d="M168.06,75.63S173,88.82,184.27,90.55C184.27,90.55,173.69,83.73,168.06,75.63Z"/><path class="cls-15" d="M180.05,10.82s6.58.29,9.61-4.22"/><path class="cls-16" d="M174.26,21.8a36.27,36.27,0,0,0,27.57-10"/><path class="cls-17" d="M181.89,2.56l1,.07-.36.33s-.58-.07-.46-.28l.43,0-.07.07"/><path class="cls-17" d="M184.49,2.75l-1-.08-.36.33a2.25,2.25,0,0,0,1-.17l-.43,0-.07.06"/><path class="cls-17" d="M182,2.45l1,.08.36-.33a2.27,2.27,0,0,0-1,.17l.44,0,.06-.06"/><path class="cls-17" d="M184.6,2.65l-1-.08.36-.33s.59.07.47.28l-.44,0,.07-.06"/><ellipse class="cls-18" cx="183.25" cy="2.6" rx="1.41" ry="0.49" transform="translate(0.36 14.29) rotate(-4.47)"/><line class="cls-18" x1="183.79" y1="2.11" x2="182.71" y2="3.09"/><ellipse class="cls-19" cx="183.25" cy="2.6" rx="1.64" ry="0.57" transform="translate(0.36 14.29) rotate(-4.47)"/><polygon class="cls-19" points="181.72 2.05 181.19 1.64 182.47 1.37 183.01 1.77 181.72 2.05"/><polygon class="cls-20" points="181.88 1.91 181.56 1.67 182.32 1.51 182.63 1.75 181.88 1.91"/><polygon class="cls-21" points="182.24 1.81 181.76 1.78 181.96 1.6 182.44 1.64 182.24 1.81"/><polygon class="cls-19" points="180.09 3.53 179.55 3.12 180.84 2.85 181.37 3.26 180.09 3.53"/><polygon class="cls-20" points="180.24 3.39 179.93 3.15 180.68 2.99 181 3.23 180.24 3.39"/><polygon class="cls-21" points="180.6 3.3 180.13 3.26 180.32 3.08 180.8 3.12 180.6 3.3"/><polygon class="cls-19" points="184.03 3.83 183.5 3.42 184.78 3.15 185.32 3.55 184.03 3.83"/><polygon class="cls-20" points="184.19 3.69 183.87 3.45 184.63 3.29 184.94 3.53 184.19 3.69"/><polygon class="cls-21" points="184.55 3.59 184.07 3.56 184.27 3.38 184.74 3.41 184.55 3.59"/><polygon class="cls-19" points="185.67 2.35 185.14 1.94 186.42 1.66 186.95 2.07 185.67 2.35"/><polygon class="cls-20" points="185.82 2.2 185.51 1.96 186.26 1.8 186.58 2.04 185.82 2.2"/><polygon class="cls-21" points="186.18 2.11 185.71 2.08 185.9 1.9 186.38 1.93 186.18 2.11"/><line class="cls-19" x1="183.01" y1="1.78" x2="185.14" y2="1.94"/><line class="cls-19" x1="185.67" y1="2.34" x2="184.78" y2="3.14"/><line class="cls-19" x1="181.37" y1="3.26" x2="183.5" y2="3.42"/><line class="cls-19" x1="181.72" y1="2.05" x2="180.84" y2="2.85"/><path class="cls-22" d="M196.17,56.63s-1.13-4.54,1.56-5.52,2.28,2.19,1.63,2.55S196.44,54.61,196.17,56.63Z"/><path class="cls-22" d="M191.25,58.33s-1.21-4.74-4.06-4.4-1,3.09-.21,3.12S190,56.58,191.25,58.33Z"/><path class="cls-22" d="M211.83,49.78s-2-4.28.45-5.77,2.67,1.73,2.1,2.21S211.7,47.72,211.83,49.78Z"/><path class="cls-22" d="M206.88,52.49s-1.92-4.21-4.64-3.26-.44,3.13.29,3S205.41,51.11,206.88,52.49Z"/><path class="cls-22" d="M179.83,60.35s-.31-4.88,2.51-5.43,1.86,2.64,1.16,2.9S180.46,58.31,179.83,60.35Z"/><path class="cls-22" d="M175.12,61.22s-.39-4.87-3.26-5-1.46,2.89-.73,3S174.21,59.3,175.12,61.22Z"/><path class="cls-22" d="M164.45,61.25s.31-4.45,2.93-4.62,1.37,2.62.7,2.77S165.27,59.48,164.45,61.25Z"/><path class="cls-22" d="M224.64,39.23s-2.95-4-.89-6,3,1.26,2.57,1.87S224,37.13,224.64,39.23Z"/><path class="cls-22" d="M220.75,43.23s-2-3.36-4.44-1.92-.19,2.91.47,2.63S219.32,42.31,220.75,43.23Z"/><path class="cls-22" d="M231.41,31.31s-2.55-2.56-4.32-1,.5,2.49,1,2.16S230,30.73,231.41,31.31Z"/><path class="cls-23" d="M160.36,60.59h1.15v1s-.68-.08-.79-.66h.48v.18"/><path class="cls-23" d="M163.23,60.59h-1.15v1s.68-.08.79-.66h-.48v.18"/><path class="cls-23" d="M160.35,60.28h1.15v-1s-.68.08-.78.67h.47V59.8"/><path class="cls-23" d="M163.23,60.28h-1.15v-1s.68.08.78.67h-.47V59.8"/><circle class="cls-23" cx="161.79" cy="60.42" r="1.44"/><line class="cls-23" x1="161.79" y1="58.98" x2="161.79" y2="61.86"/><circle class="cls-23" cx="161.79" cy="60.42" r="1.67"/><path class="cls-23" d="M176,59.77l1.15-.13.1,1a.91.91,0,0,1-.85-.57l.47-.05,0,.18"/><path class="cls-23" d="M178.81,59.44l-1.15.13.11,1s.67-.16.71-.75l-.47.06,0,.18"/><path class="cls-23" d="M175.91,59.47l1.15-.13-.11-1s-.67.15-.71.75l.47-.06,0-.18"/><path class="cls-23" d="M178.77,59.14l-1.15.13-.11-1s.69,0,.86.56l-.47.06,0-.18"/><circle class="cls-23" cx="177.36" cy="59.44" r="1.44"/><line class="cls-23" x1="177.2" y1="58.01" x2="177.52" y2="60.87"/><circle class="cls-23" cx="177.36" cy="59.44" r="1.67"/><path class="cls-23" d="M191.83,56.65,193,56.4l.21.94a.91.91,0,0,1-.91-.48l.46-.1,0,.18"/><path class="cls-23" d="M194.63,56l-1.12.24.21.94a.91.91,0,0,0,.62-.81l-.46.1,0,.17"/><path class="cls-23" d="M191.76,56.35l1.12-.24-.2-.94s-.65.22-.63.81l.47-.1,0-.18"/><path class="cls-23" d="M194.56,55.74l-1.12.25-.21-.94a.93.93,0,0,1,.92.47l-.47.11,0-.18"/><circle class="cls-23" cx="193.19" cy="56.18" r="1.44"/><line class="cls-23" x1="192.89" y1="54.78" x2="193.5" y2="57.59"/><circle class="cls-23" cx="193.19" cy="56.18" r="1.67"/><path class="cls-23" d="M207.65,50.56l1-.51.42.87a.92.92,0,0,1-1-.25l.43-.21.08.16"/><path class="cls-23" d="M210.24,49.3l-1,.51.42.86a.92.92,0,0,0,.42-.94l-.43.21.08.16"/><path class="cls-23" d="M207.51,50.28l1-.5-.42-.86a.91.91,0,0,0-.42.94l.43-.21-.08-.16"/><path class="cls-23" d="M210.1,49l-1,.5-.42-.86a.92.92,0,0,1,1,.25l-.43.21-.08-.16"/><circle class="cls-23" cx="208.87" cy="49.78" r="1.44"/><line class="cls-23" x1="208.24" y1="48.49" x2="209.5" y2="51.08"/><circle class="cls-23" cx="208.87" cy="49.78" r="1.67"/><path class="cls-23" d="M221.23,41.44l.86-.76.64.72a.93.93,0,0,1-1,0l.36-.32.12.13"/><path class="cls-23" d="M223.38,39.54l-.86.76.64.72a.91.91,0,0,0,.15-1l-.36.32.12.13"/><path class="cls-23" d="M221,41.22l.87-.77-.64-.71a.9.9,0,0,0-.15,1l.36-.31-.12-.14"/><path class="cls-23" d="M223.17,39.31l-.86.77-.63-.72a.89.89,0,0,1,1,0l-.35.32-.12-.14"/><circle class="cls-23" cx="222.19" cy="40.37" r="1.44"/><line class="cls-23" x1="221.24" y1="39.29" x2="223.15" y2="41.44"/><circle class="cls-23" cx="222.19" cy="40.37" r="1.67"/><path class="cls-24" d="M199.84,23.25s8.17-2,8.27-7C208.11,16.28,202.06,22.51,199.84,23.25Z"/><path class="cls-25" d="M241.55,46.39s4.43-1.07,3.23-9.78-8-10.65,1.84-19.08,10.75-6,10.75-6-6.6.78-9,11.75c-1.94,9,1.27,14.64.48,18.47s-2.9,10.7-7.5,11.37Z"/><path class="cls-26" d="M133.46,51.31S132.89,71.18,155,79.37l13.48,3.3,3.46,3.06s-15.32,0-27.41-10.1C134.67,67.39,130.44,62.84,133.46,51.31Z"/><polygon class="cls-27" points="177.15 20.44 175.29 17.7 177.4 15.19 179.26 17.93 177.15 20.44"/><polygon class="cls-23" points="177.21 19.36 176.11 17.75 177.35 16.27 178.45 17.88 177.21 19.36"/><polygon class="cls-28" points="177.77 18.53 176.72 18.47 176.79 17.1 177.83 17.16 177.77 18.53"/><polygon class="cls-29" points="182.11 20.65 179.75 17.98 181.8 15.05 184.16 17.73 182.11 20.65"/><polygon class="cls-30" points="182.05 19.5 180.66 17.93 181.86 16.21 183.25 17.77 182.05 19.5"/><polygon class="cls-31" points="182.58 18.55 181.42 18.62 181.34 17.16 182.49 17.09 182.58 18.55"/><polygon class="cls-32" points="187.69 19.48 184.78 17.46 186.05 14.16 188.96 16.17 187.69 19.48"/><polygon class="cls-33" points="187.34 18.39 185.64 17.19 186.4 15.25 188.1 16.45 187.34 18.39"/><polygon class="cls-34" points="187.63 17.35 186.53 17.68 186.11 16.28 187.21 15.96 187.63 17.35"/><polyline class="cls-35" points="197.47 8.03 197.5 10.37 200.04 11.06 200.12 9.5"/><polyline class="cls-36" points="197.99 8.27 198.01 9.98 199.51 10.38 199.66 9.26"/><polyline class="cls-37" points="199.62 9.53 198.88 10.17 198.04 9.17 198.71 8.65"/><polygon class="cls-38" points="197.4 13.88 197.05 10.51 193.5 10.01 193.84 13.38 197.4 13.88"/><polygon class="cls-30" points="196.58 13.14 196.39 11.05 194.31 10.75 194.5 12.84 196.58 13.14"/><polygon class="cls-31" points="195.53 12.88 196.38 12.08 195.36 11.02 194.52 11.81 195.53 12.88"/><polygon class="cls-32" points="192.82 17.24 193.26 13.74 189.96 12.47 189.51 15.98 192.82 17.24"/><polygon class="cls-33" points="192.25 16.25 192.49 14.19 190.53 13.46 190.29 15.53 192.25 16.25"/><polygon class="cls-34" points="191.28 15.78 192.26 15.18 191.5 13.94 190.52 14.54 191.28 15.78"/><circle class="cls-27" cx="179.53" cy="19.33" r="0.33"/><circle class="cls-27" cx="184.75" cy="18.74" r="0.36"/><circle class="cls-27" cx="189.61" cy="17.25" r="0.36"/><circle class="cls-27" cx="194.15" cy="14.63" r="0.36"/><circle class="cls-27" cx="198.13" cy="11.46" r="0.36"/><path class="cls-39" d="M168.27,60.74l2.77,0-.57-.62a1,1,0,0,0-1.76.1Z"/><path class="cls-39" d="M168.27,60.74l2.77,0-.56.69a1,1,0,0,1-1.77-.1Z"/><path class="cls-39" d="M183.9,58.87l2.75-.36L186,58a1,1,0,0,0-1.74.31Z"/><path class="cls-39" d="M183.9,58.87l2.75-.36-.48.75a1,1,0,0,1-1.77.11Z"/><path class="cls-39" d="M200.17,54.17l2.72-.55-.67-.51a1,1,0,0,0-1.72.43Z"/><path class="cls-39" d="M200.17,54.17l2.72-.55-.42.78a1,1,0,0,1-1.76.23Z"/><path class="cls-39" d="M215.43,46.55l2.34-1.49-.81-.23c-.83-.24-1.35.13-1.45,1Z"/><path class="cls-39" d="M215.43,46.55l2.34-1.49-.12.88c-.15.84-.72,1.15-1.56.85Z"/><path class="cls-39" d="M227,35.47l2.05-1.87-.83-.08c-.85-.1-1.31.36-1.26,1.24Z"/><path class="cls-39" d="M227,35.47l2.05-1.87,0,.89c0,.86-.51,1.25-1.39,1.1Z"/><path class="cls-40" d="M259.34,8.65s-4.7-.84-4.88-2.83-1.11-1.73.91-2,4.9,2.44,5.07,3.75A.89.89,0,0,1,259.34,8.65Z"/></svg>