<svg id="Layer_1" data-name="Layer 1" xmlns="http://www.w3.org/2000/svg" viewBox="0 0 159.15 78.98"><defs><style>.cls-1{fill:#fff;}.cls-2{fill:#231f20;}.cls-3{fill:#f26862;}.cls-4{fill:#e0e0e0;}.cls-5,.cls-6{fill:none;stroke-linecap:round;}.cls-5{stroke:#231f20;stroke-miterlimit:10;stroke-width:1.15px;}.cls-6{stroke:#000;stroke-linejoin:round;stroke-width:3.18px;}</style></defs><title>P-fonsiclothes</title><ellipse class="cls-1" cx="80.67" cy="37.61" rx="30.97" ry="37.61"/><circle class="cls-2" cx="100.1" cy="30.89" r="3.49"/><circle class="cls-3" cx="81.63" cy="45.39" r="4.72"/><path class="cls-4" d="M94.58,24.51a3.78,3.78,0,0,1-3.18-.77c-.94-.81-1.27-2.06,2-3.63,5.86-2.85,14.64,1.2,14.43,3.19S103.24,22.88,94.58,24.51Z"/><path class="cls-4" d="M66.62,24.51a3.81,3.81,0,0,0,3.19-.77c.94-.81,1.26-2.06-2-3.63C62,17.26,53.21,21.31,53.42,23.3S58,22.88,66.62,24.51Z"/><path class="cls-5" d="M94.36,28.8s1.57-1.46,5.74-1.4a12.62,12.62,0,0,1,6.25,1.4"/><circle class="cls-2" cx="61.67" cy="30.39" r="3.49"/><path class="cls-5" d="M55.94,28.3s1.56-1.46,5.73-1.4a12.69,12.69,0,0,1,6.26,1.4"/><path class="cls-6" d="M65.47,55.75s1,9.37,16.16,9.22,14.24-9.22,14.24-9.22"/><path class="cls-3" d="M95.88,37.61a10.73,10.73,0,0,0,8,0l-4,8.47Z"/><path class="cls-3" d="M57.14,37.61a10.75,10.75,0,0,0,8,0l-4,8.47Z"/><circle class="cls-3" cx="65.31" cy="54.57" r="2.62"/><circle class="cls-3" cx="95.88" cy="54.57" r="2.62"/></svg>