<svg id="Layer_1" data-name="Layer 1" xmlns="http://www.w3.org/2000/svg" viewBox="0 0 159.62 102.92"><defs><style>.cls-1{fill:#e2e3e4;}.cls-2{fill:#e0e0e0;}.cls-3{fill:#f7f7f7;}.cls-4{fill:#e2e2e2;}.cls-5{fill:#f0efef;}.cls-6{fill:#f2f2f3;}.cls-7{fill:none;stroke:#262424;stroke-miterlimit:10;stroke-width:1.99px;}.cls-8{fill:#c8c8cb;}.cls-9{fill:#fbccc8;}</style></defs><title>P-fonsiclothes</title><path class="cls-1" d="M55.18,7.61V13a28.12,28.12,0,0,1-18.54,7.48,21.08,21.08,0,0,1-16.85-8.7V7.25s7.73,9,17.72,8.9C47,16,55.18,7.61,55.18,7.61Z"/><path class="cls-1" d="M146.76,7.91l-.25,5.36a29.25,29.25,0,0,1-19.38,6.58c-11.45-.54-17-7.5-17-7.5l.21-4.51s7.6,7.41,17.86,7.75C138,15.92,146.76,7.91,146.76,7.91Z"/><path class="cls-2" d="M5.94,81.08v5.07s10.64,7.47,29,6.32,29.07-6,29.44-8.33l0-9.18Z"/><path class="cls-3" d="M17.75,16.88A50,50,0,0,0,14,35.09c0,9.72-6.86,23.44-6.29,30.59S14,84.43,33.11,84.14c0,0,31.73,2.31,28.3-29.09,0,0-3.1-19.39-5.41-21.1,0,0,3.94-11.45-.09-18.32"/><path class="cls-4" d="M47.9,26.65a17.38,17.38,0,0,0,4.16-2.16c7.36-5.32,3.75-17-5.32-17.54s-22.41-.72-26.95,2.3c-7,4.67,6.37,17.4,6.37,17.4S18.72,46.26,22.8,50.86s12.56,4.74,20.77,3.57C53.77,53,47.9,26.65,47.9,26.65Z"/><path class="cls-5" d="M11.35,64.94s23.56-15.85,46.65,0c10.54,7.22,7.36,16.53-5,21.51-9.44,3.79-25.46,2.78-35.37.45C3.85,83.68.61,78.47,11.35,64.94Z"/><path class="cls-6" d="M46.87,25.75a15.8,15.8,0,0,0,3.77-2C57.31,19,54,8.36,45.82,7.89S25.5,7.24,21.38,10C15,14.21,27.16,25.75,27.16,25.75s-6.74,17.78-3.05,21.94S35.5,52,43,50.93C52.19,49.62,46.87,25.75,46.87,25.75Z"/><path class="cls-7" d="M37.46,22.57S51,28.79,48.12,30.88s-27.07,2.77-23.29,6,23.29,7.78,23.29,7.78"/><circle class="cls-8" cx="48.12" cy="30.88" r="1.86"/><circle class="cls-8" cx="48.12" cy="44.62" r="1.86"/><circle class="cls-8" cx="24.83" cy="36.84" r="1.86"/><path class="cls-9" d="M32.85,15.81a3,3,0,0,0,3-3s1.92,3.3,0,3.85,5.4-6.5,5.86-2.11,5.31,5.86-1,5.77-7.87,2.13-7.87-1.19-2.75.83-3-2.56S32.85,15.81,32.85,15.81Z"/><path class="cls-7" d="M36.29,22.57S22.67,27.23,24.83,30.1c0,0,18.06,6.88,23.29,7.52S28,43.53,24.83,43.85"/><circle class="cls-8" cx="48.12" cy="37.62" r="1.86"/><circle class="cls-8" cx="24.83" cy="43.85" r="1.86"/><circle class="cls-8" cx="24.83" cy="30.1" r="1.86"/><path class="cls-7" d="M37.46,22.57s2.15,21,15.19,17.14S50.38,23.65,46.8,22.13,37.46,22.57,37.46,22.57Z"/><path class="cls-7" d="M36.29,22.57s-2.15,21-15.19,17.14S23.37,23.65,27,22.13,36.29,22.57,36.29,22.57Z"/><path class="cls-1" d="M147.45,7.66V13a28.15,28.15,0,0,1-18.54,7.48c-11.17,0-16.86-6.7-16.86-6.7V9.3s7.74,7,17.73,6.9C139.31,16.07,147.45,7.66,147.45,7.66Z"/><path class="cls-2" d="M99.26,81.05v4.74s10,7,27.12,5.91,27.21-5.65,27.56-7.8l0-8.59Z"/><path class="cls-3" d="M110,16.93a50,50,0,0,0-3.8,18.21c0,9.72-6.86,23.44-6.29,30.59s6.29,18.75,25.45,18.46c0,0,31.73,2.3,28.3-29.09,0,0-3.1-19.39-5.41-21.1,0,0,3.94-11.45-.09-18.32"/><path class="cls-4" d="M140.17,26.7a17.11,17.11,0,0,0,4.15-2.16c7.37-5.32,3.76-17-5.31-17.54s-22.41-.72-27,2.3c-7,4.67,6.37,17.4,6.37,17.4S111,46.31,115.06,50.91s12.57,4.74,20.78,3.57C146,53,140.17,26.7,140.17,26.7Z"/><path class="cls-5" d="M104.33,65.93s22-14.83,43.66,0c9.87,6.77,6.89,15.48-4.7,20.13-8.84,3.56-23.83,2.61-33.11.43C97.31,83.47,94.28,78.6,104.33,65.93Z"/><path class="cls-6" d="M139.14,25.8a16,16,0,0,0,3.77-2c6.67-4.83,3.4-15.43-4.82-15.9S117.77,7.29,113.65,10c-6.37,4.24,5.78,15.78,5.78,15.78s-6.75,17.78-3.05,21.94S127.77,52,135.22,51C144.46,49.67,139.14,25.8,139.14,25.8Z"/><path class="cls-7" d="M129.72,22.62s13.53,6.21,10.66,8.3-27.06,2.78-23.28,6,23.28,7.78,23.28,7.78"/><circle class="cls-8" cx="140.38" cy="30.92" r="1.86"/><circle class="cls-8" cx="140.38" cy="44.67" r="1.86"/><circle class="cls-8" cx="117.1" cy="36.89" r="1.86"/><path class="cls-9" d="M125.12,15.85a3,3,0,0,0,3-3s1.92,3.3,0,3.85,5.4-6.5,5.86-2.11,5.31,5.86-1,5.77-7.87,2.13-7.87-1.19-2.75.82-3-2.56S125.12,15.85,125.12,15.85Z"/><path class="cls-7" d="M128.56,22.62s-13.63,4.66-11.46,7.53c0,0,18.06,6.87,23.28,7.52s-20.13,5.91-23.28,6.22"/><circle class="cls-8" cx="140.38" cy="37.67" r="1.86"/><circle class="cls-8" cx="117.1" cy="43.89" r="1.86"/><circle class="cls-8" cx="117.1" cy="30.15" r="1.86"/><path class="cls-7" d="M129.72,22.62s2.16,21,15.2,17.14-2.27-16.06-5.86-17.58S129.72,22.62,129.72,22.62Z"/><path class="cls-7" d="M128.56,22.62s-2.15,21-15.19,17.14,2.26-16.06,5.85-17.58S128.56,22.62,128.56,22.62Z"/></svg>