<svg id="Layer_1" data-name="Layer 1" xmlns="http://www.w3.org/2000/svg" viewBox="0 0 159.15 147.44"><defs><style>.cls-1{fill:#475daa;}.cls-2{fill:#d0d5e5;}.cls-3{fill:#263d85;}.cls-4{fill:#6c7dae;}.cls-5{fill:#a7b3ce;}.cls-6{fill:#a6b2cc;}.cls-7{fill:#3d5394;}.cls-8{fill:#4e649c;}.cls-9{fill:#4a494a;stroke:#939393;stroke-width:0.73px;}.cls-10,.cls-9{stroke-miterlimit:10;}.cls-10{fill:none;stroke:#253c7e;stroke-width:1.12px;}.cls-11{fill:#cdd5e2;}.cls-12{fill:#5982a5;}</style></defs><title>P-fonsiclothes</title><polygon class="cls-1" points="3.52 2.3 154.61 2.3 157.22 130.09 93.04 130.09 92.27 82.07 63.63 82.07 63.63 130.09 3.52 130.09 3.52 2.3"/><polygon class="cls-2" points="3.52 130.09 10.19 136.6 14.93 133.34 23.32 136.6 27.34 133.34 35.73 136.6 39.74 133.34 45.94 140.58 49.59 134.12 56.52 136.6 63.63 130.09 3.52 130.09"/><polygon class="cls-2" points="157.28 130.09 150.17 136.6 145.11 133.34 136.15 136.6 131.87 133.34 122.92 136.6 118.64 133.34 112.02 140.58 108.13 134.12 100.73 136.6 93.15 130.09 157.28 130.09"/><path class="cls-3" d="M47.13,8.61S36.66,34.9,22.59,35.76,3.52,38.08,3.52,38.08L4.26,8.37Z"/><path class="cls-3" d="M111.74,8.61S122.2,34.9,136.27,35.76s19.07,2.32,19.07,2.32l-.73-29.71Z"/><path class="cls-4" d="M112.92,77.33s26.65,1.28,29.21-2.23c0,0-3.32,7-11.23,7,0,0,16.33-2.56,11.23,1.59s-4.47,7.66-9.58,7.66S150.81,99,143.12,99s-23.65,6.7-28.12,4.79-2.55,2.23,3.51-5.75c0,0-8.93-.95-11.49-1.59s8.62-1.6,8.3-4.79-9.25-1-7.66-8.62c0,0,1,1.92,6.7.32,0,0-8.93-1-8.61-6.06Z"/><path class="cls-4" d="M21.36,68.7s25.17,5.65,27.72,2.14c0,0-3.08,9.59-11,9.59,0,0,7.53,6.22,11,6.22,6.58,0-4.24,3-9.34,3S58,97.34,50.3,97.34s-23.65,6.7-28.12,4.79-9.3,3.09-3.24-4.88a13.7,13.7,0,0,0-4.73-2.46c-2.56-.64,8.61-1.6,8.29-4.79s-9.25-1-7.65-8.62c0,0,1,1.92,6.7.32,0,0-9-5.76-8.63-10.86Z"/><path class="cls-5" d="M23.58,71.67s22.47,5,24.75,1.9c0,0-2.76,8.56-9.82,8.56,0,0,6.72,5.56,9.82,5.56,5.87,0-3.79,2.7-8.34,2.7s16.28,6.84,9.42,6.84-21.1,6-25.09,4.27-8.31,2.76-2.9-4.36A12.17,12.17,0,0,0,17.2,95c-2.28-.57,7.69-1.43,7.41-4.27s-8.26-.86-6.84-7.69c0,0,.85,1.71,6,.28,0,0-8-5.14-7.7-9.7Z"/><path class="cls-6" d="M114.48,79.78s23.27,1.12,25.5-2c0,0-2.89,6.13-9.8,6.13,0,0,14.26-2.23,9.8,1.4S136.08,92,131.62,92s15.94,6.69,9.22,6.69-20.64,5.85-24.54,4.18-2.23,2,3.06-5c0,0-7.8-.83-10-1.39s7.53-1.39,7.25-4.18-8.27-1.34-6.87-8c0,0,1,.59,6,.79,0,0-7.8-.84-7.52-5.3Z"/><path class="cls-7" d="M45.27,8.6s-10,25.16-23.49,26S3.52,36.82,3.52,36.82l.7-28.45Z"/><path class="cls-7" d="M113.6,8.6s10,25.16,23.49,26,18.25,2.23,18.25,2.23l-.7-28.45Z"/><polygon class="cls-8" points="18.05 10.89 144.68 10.89 144.68 2.3 14.01 2.3 14.01 10.89 18.05 10.89"/><circle class="cls-9" cx="78.03" cy="6.48" r="3.29"/><path class="cls-10" d="M78,12.66s1-.67.93,2S76.52,17,76.85,19.8,79.1,21.48,79,25.87s-1.52,9-1.07,11"/><path class="cls-11" d="M109.82,80.92s19.87,1.62,25.49,0C135.31,80.92,122.23,85.88,109.82,80.92Z"/><path class="cls-11" d="M112.15,82.4S128.38,84,133,82.4C133,82.4,122.29,87.36,112.15,82.4Z"/><path class="cls-11" d="M111.31,85.26s19.44-1.82,24.77-2.58C136.08,82.68,124.22,89.24,111.31,85.26Z"/><path class="cls-11" d="M113.19,85.94s16.34.35,20.73-1.61C133.92,84.33,123.84,90.1,113.19,85.94Z"/><path class="cls-11" d="M109.36,86.17s21.12,1.62,27.09,0C136.45,86.17,122.56,91.14,109.36,86.17Z"/><path class="cls-11" d="M111.84,87.65s17.25,1.62,22.13,0C134,87.65,122.62,92.61,111.84,87.65Z"/><path class="cls-11" d="M112.81,89.58s15.47.2,19.68-1.34C132.49,88.24,122.77,92.76,112.81,89.58Z"/><path class="cls-11" d="M114.72,90.59s12.66.4,16.08-1.09C130.8,89.5,122.93,93.89,114.72,90.59Z"/><path class="cls-11" d="M114.29,92.85s14.87-2.43,18.93-3.29C133.22,89.56,124.56,95.24,114.29,92.85Z"/><path class="cls-11" d="M115.79,93.28s12.65-.59,15.89-2.34C131.68,90.94,124.33,95.93,115.79,93.28Z"/><path class="cls-11" d="M112.85,93.66s16.44.14,20.92-1.43C133.77,92.23,123.42,96.8,112.85,93.66Z"/><path class="cls-11" d="M114.88,94.67S128.32,95,132,93.5C132,93.5,123.58,97.93,114.88,94.67Z"/><path class="cls-11" d="M111,79.82s19.87,1.62,25.49,0C136.44,79.82,123.36,84.78,111,79.82Z"/><path class="cls-11" d="M118.72,96.72s13.86-2.26,17.63-3.07C136.35,93.65,128.29,99,118.72,96.72Z"/><path class="cls-11" d="M120.12,97.12s11.78-.55,14.8-2.18C134.92,94.94,128.07,99.59,120.12,97.12Z"/><path class="cls-11" d="M117.38,97.47s15.31.13,19.49-1.32C136.87,96.15,127.22,100.4,117.38,97.47Z"/><path class="cls-11" d="M120.62,98.94s10.42.32,13.25-1.08C133.87,97.86,127.36,102,120.62,98.94Z"/><path class="cls-11" d="M115.7,99.16s15.31.13,19.49-1.32C135.19,97.84,125.54,102.09,115.7,99.16Z"/><path class="cls-11" d="M117.59,100.1s12.52.32,15.92-1.08C133.51,99,125.69,103.15,117.59,100.1Z"/><path class="cls-11" d="M16.58,75s23.32,2,29.91,0C46.49,75,31.15,81,16.58,75Z"/><path class="cls-11" d="M19.32,76.76s19,2,24.43,0C43.75,76.76,31.22,82.79,19.32,76.76Z"/><path class="cls-11" d="M18.33,80.24S41.15,78,47.4,77.1C47.4,77.1,33.49,85.08,18.33,80.24Z"/><path class="cls-11" d="M20.53,81.07s19.18.43,24.33-2C44.86,79.11,33,86.12,20.53,81.07Z"/><path class="cls-11" d="M16.05,81.35s24.78,2,31.79,0C47.84,81.35,31.53,87.38,16.05,81.35Z"/><path class="cls-11" d="M19,83.14s20.24,2,26,0C44.92,83.14,31.6,89.18,19,83.14Z"/><path class="cls-11" d="M20.09,85.49s18.15.25,23.1-1.63C43.19,83.86,31.78,89.36,20.09,85.49Z"/><path class="cls-11" d="M22.34,86.72s14.85.49,18.86-1.32C41.2,85.4,32,90.74,22.34,86.72Z"/><path class="cls-11" d="M21.83,89.46s17.45-2.94,22.21-4C44,85.46,33.88,92.37,21.83,89.46Z"/><path class="cls-11" d="M23.59,90s14.84-.72,18.64-2.84C42.23,87.15,33.61,93.21,23.59,90Z"/><path class="cls-11" d="M20.14,90.45s19.29.17,24.55-1.73C44.69,88.72,32.54,94.26,20.14,90.45Z"/><path class="cls-11" d="M22.52,91.67s15.78.42,20.06-1.41C42.58,90.26,32.73,95.64,22.52,91.67Z"/><path class="cls-11" d="M17.91,73.63s23.32,2,29.91,0C47.82,73.63,32.48,79.66,17.91,73.63Z"/><path class="cls-11" d="M27,94.17s16.26-2.75,20.69-3.73C47.72,90.44,38.26,96.88,27,94.17Z"/><path class="cls-11" d="M28.67,94.65S42.49,94,46,92C46,92,38,97.66,28.67,94.65Z"/><path class="cls-11" d="M25.46,95.08s18,.16,22.87-1.61C48.33,93.47,37,98.64,25.46,95.08Z"/><path class="cls-11" d="M23.49,97.14s18,.16,22.86-1.61C46.35,95.53,35,100.7,23.49,97.14Z"/><path class="cls-11" d="M25.7,98.28s14.7.39,18.68-1.31C44.38,97,35.21,102,25.7,98.28Z"/><rect class="cls-12" x="32.8" y="2.3" width="3.8" height="8.59"/><rect class="cls-12" x="53.42" y="2.3" width="3.8" height="8.59"/><rect class="cls-12" x="94.62" y="2.3" width="3.8" height="8.59"/><rect class="cls-12" x="116.35" y="2.3" width="3.8" height="8.59"/></svg>