<svg id="Layer_1" data-name="Layer 1" xmlns="http://www.w3.org/2000/svg" viewBox="0 0 159.15 121.81"><defs><style>.cls-1{fill:#fee1c8;}.cls-2{fill:#fee2ca;}.cls-3{fill:#ddb2d3;}.cls-4{fill:#ddbedb;}</style></defs><title>P-fonsiclothes</title><path class="cls-1" d="M112.92,1.36s4.8,31.83-29.29,32.36-28-32.36-28-32.36Z"/><path class="cls-2" d="M20.65,54.42C19.41,10.51,38.94,1.22,44.24,1.36s11.34,0,11.34,0S49.73,33.71,83.63,33.72c29.52,0,29.29-32.36,29.29-32.36s29.88.51,30.59,21,0,30.79,0,30.79H119.92v68.63l-75.64.14V54.21Z"/><path class="cls-3" d="M44.28,54.21l0-53h7.09V14.73s-.11,9.94,33.09,9.81c26.81-.1,29.87-4.5,29.92-8,0-2.21-.54-4.39-.54-6.6V1.36L120.55,3l-1.71,55.18,1.08,63.59-75.64.14Z"/><path class="cls-4" d="M45.8,1.18l5.54,120.56h61.58L118.66,2.52l-3.15-.76S113.19,28.87,96.1,28c-10.55-.53-19,.67-26.22.38s-15.5-4.86-18.34-11.63c-1.92-4.56-2-10.29-1.78-15.57Z"/></svg>